<svg width="1001" height="496" viewBox="0 0 1001 496" fill="none" xmlns="http://www.w3.org/2000/svg">
<g opacity="0.29827">
<path d="M1008.08 164.234L443.182 -354.837V-744.244L28.1096 -767C24.9043 -759.474 4.36709 -737.784 7.57176 -725.694C11.43 -711.235 30.8387 -715.857 36.4776 -706.553C43.0661 -695.59 31.7291 -651.025 28.3457 -638.166C21.8759 -613.809 7.09676 -594.076 2.82235 -569.719C-4.35982 -528.829 10.1824 -532.088 37.7242 -506.546C84.141 -463.464 46.9244 -418.78 58.6176 -368.171C68.1146 -326.924 109.605 -305.65 124.8 -264.405C136.553 -232.64 152.697 -224.523 177.746 -201.291C177.153 -215.396 164.51 -256.997 188.253 -253.323C211.817 -249.708 202.736 -214.982 207.247 -200.461C211.045 -188.372 237.933 -164.194 215.616 -153.052C208.196 -149.378 187.066 -164.016 178.577 -167.927C184.572 -149.259 180.774 -129.882 190.271 -112.044C201.608 -90.7695 213.835 -98.9469 228.853 -87.3909C244.344 -75.4794 242.683 -61.7901 235.797 -43.7747C228.615 -24.9886 221.196 -27.8922 232.592 -5.25421C240.843 11.1015 254.85 31.8431 266.9 44.2878C273.904 51.5176 281.502 53.177 288.506 62.4216C294.323 70.1255 292.067 80.2003 299.012 87.1334C310.883 99.0449 331.006 99.2228 340.384 114.808C350.831 132.171 338.96 145.268 369.706 143.668C371.309 178.395 377.897 209.863 377.541 244.589C394.695 251.404 422.414 243.285 440.399 239.67C458.266 263.73 481.355 247.019 501.774 260.116C510.678 265.805 508.837 280.028 514.239 285.005C525.339 295.198 533.529 288.798 547.301 292.354C557.51 294.961 565.404 302.428 575.138 305.154C584.338 307.703 599.475 301.717 606.301 309.836C614.492 319.555 600.78 337.333 613.127 345.155C623.395 351.674 638.115 336.148 648.088 338.4C659.721 341.066 693.079 371.468 701.271 381.482C710.59 392.919 719.969 414.254 725.25 428.95C733.501 451.943 732.373 463.203 749.408 480.033C760.27 490.76 749.942 491.53 767.63 494.671C779.204 496.745 794.518 488.389 806.212 487.085C830.549 484.419 855.122 489.041 879.102 484.478C901.421 480.211 922.729 473.218 945.64 469.959C965.465 467.114 1000.37 469.307 1017.94 459.885C1036.99 449.751 1038.71 426.817 1011.17 431.084C1008.97 416.447 1018.77 396.238 1007.85 386.105C1023.04 365.364 1028.56 350.727 1030.93 325.363C1032 314.221 1032.48 301.895 1038 292.531C1043.4 283.287 1058.59 277.775 1061.56 269.834C1066.13 257.508 1058.83 251.996 1053.25 245.122C1049.69 240.678 1039.54 242.811 1036.63 238.9C1031.23 231.729 1036.57 224.322 1033.6 217.092C1024.94 196.173 1014.61 187.935 1008.08 164.23C1008.26 168.201 1008.44 172.231 1008.2 176.142" stroke="white" stroke-width="2" stroke-linecap="round" stroke-linejoin="round"/>
</g>
<path d="M729.114 84.9141C720.546 108.24 740.614 116.425 756.675 131.671C761.434 136.189 761.888 143.652 756.879 148.167C746.107 157.875 705.264 143.752 707.854 156.55C710.53 169.767 745.061 188.26 746.618 189.525C760.284 200.631 764.735 228.807 757.208 244.254C751.852 255.246 716.342 251.541 705.172 247.881C632.024 223.91 664.985 226.769 582.817 219.325C576.527 218.755 569.935 218.464 563.894 220.303C557.671 222.197 557.869 229.969 559.957 234.17C566.876 248.093 597.849 271.708 589.514 290.01C586.956 295.625 580.963 299.172 578.264 304.722C576.151 309.069 576.385 314.201 575.445 318.941" stroke="white" stroke-width="2"/>
<path fill-rule="evenodd" clip-rule="evenodd" d="M573.5 326.401C577.09 326.401 580 323.497 580 319.916C580 316.335 577.09 313.431 573.5 313.431C569.91 313.431 567 316.335 567 319.916C567 323.497 569.91 326.401 573.5 326.401Z" fill="#4AF6CD"/>
<path fill-rule="evenodd" clip-rule="evenodd" d="M661 363.313C662.657 363.313 664 361.973 664 360.32C664 358.667 662.657 357.327 661 357.327C659.343 357.327 658 358.667 658 360.32C658 361.973 659.343 363.313 661 363.313Z" fill="#4AF6CD"/>
<path fill-rule="evenodd" clip-rule="evenodd" d="M725 471.057C726.657 471.057 728 469.717 728 468.064C728 466.411 726.657 465.071 725 465.071C723.343 465.071 722 466.411 722 468.064C722 469.717 723.343 471.057 725 471.057Z" fill="#4AF6CD"/>
<path fill-rule="evenodd" clip-rule="evenodd" d="M365 228.633C366.657 228.633 368 227.293 368 225.64C368 223.987 366.657 222.647 365 222.647C363.343 222.647 362 223.987 362 225.64C362 227.293 363.343 228.633 365 228.633Z" fill="#4AF6CD"/>
<path fill-rule="evenodd" clip-rule="evenodd" d="M729.5 91.958C733.09 91.958 736 89.0548 736 85.4734C736 81.8921 733.09 78.9888 729.5 78.9888C725.91 78.9888 723 81.8921 723 85.4734C723 89.0548 725.91 91.958 729.5 91.958Z" fill="#4AF6CD"/>
<path d="M398.41 311.422L396.17 322.446H394.218L392.186 313.214L390.138 322.446H388.234L385.994 311.422H387.482L389.258 321.118L391.386 311.422H393.002L395.178 321.118L397.018 311.422H398.41ZM406.544 317.982C406.544 318.227 406.534 318.478 406.512 318.734H401.136C401.2 319.662 401.435 320.344 401.84 320.782C402.246 321.219 402.768 321.438 403.408 321.438C403.814 321.438 404.187 321.379 404.528 321.262C404.87 321.144 405.227 320.958 405.6 320.702L406.24 321.582C405.344 322.286 404.363 322.638 403.296 322.638C402.123 322.638 401.206 322.254 400.544 321.486C399.894 320.718 399.568 319.662 399.568 318.318C399.568 317.443 399.707 316.67 399.984 315.998C400.272 315.315 400.678 314.782 401.2 314.398C401.734 314.014 402.358 313.822 403.072 313.822C404.192 313.822 405.051 314.19 405.648 314.926C406.246 315.662 406.544 316.68 406.544 317.982ZM405.088 317.55C405.088 316.718 404.923 316.083 404.592 315.646C404.262 315.208 403.766 314.99 403.104 314.99C401.899 314.99 401.243 315.875 401.136 317.646H405.088V317.55ZM411.183 313.822C411.759 313.822 412.276 313.902 412.735 314.062C413.194 314.222 413.631 314.462 414.047 314.782L413.423 315.71C413.039 315.464 412.671 315.283 412.319 315.166C411.978 315.048 411.615 314.99 411.231 314.99C410.751 314.99 410.372 315.091 410.095 315.294C409.818 315.486 409.679 315.752 409.679 316.094C409.679 316.435 409.807 316.702 410.063 316.894C410.33 317.086 410.804 317.272 411.487 317.454C412.426 317.688 413.124 318.008 413.583 318.414C414.052 318.819 414.287 319.374 414.287 320.078C414.287 320.91 413.962 321.544 413.311 321.982C412.671 322.419 411.887 322.638 410.959 322.638C409.679 322.638 408.618 322.27 407.775 321.534L408.559 320.638C409.274 321.182 410.063 321.454 410.927 321.454C411.482 321.454 411.919 321.342 412.239 321.118C412.57 320.883 412.735 320.568 412.735 320.174C412.735 319.886 412.676 319.656 412.559 319.486C412.442 319.304 412.239 319.15 411.951 319.022C411.663 318.883 411.242 318.739 410.687 318.59C409.791 318.355 409.14 318.04 408.735 317.646C408.34 317.251 408.143 316.75 408.143 316.142C408.143 315.704 408.271 315.31 408.527 314.958C408.794 314.595 409.156 314.318 409.615 314.126C410.084 313.923 410.607 313.822 411.183 313.822ZM420.62 322.062C420.065 322.446 419.436 322.638 418.732 322.638C418.017 322.638 417.457 322.435 417.052 322.03C416.657 321.614 416.46 321.016 416.46 320.238V315.15H414.988V314.014H416.46V312.11L417.932 311.934V314.014H419.932L419.772 315.15H417.932V320.174C417.932 320.611 418.006 320.931 418.156 321.134C418.316 321.326 418.577 321.422 418.94 321.422C419.27 321.422 419.644 321.31 420.06 321.086L420.62 322.062ZM429.179 311.23C429.915 311.23 430.545 311.336 431.067 311.55C431.59 311.752 432.097 312.072 432.587 312.51L431.755 313.438C431.339 313.107 430.929 312.867 430.523 312.718C430.129 312.558 429.702 312.478 429.243 312.478C428.667 312.478 428.193 312.611 427.819 312.878C427.446 313.144 427.259 313.534 427.259 314.046C427.259 314.366 427.323 314.638 427.451 314.862C427.579 315.075 427.814 315.272 428.155 315.454C428.507 315.635 429.014 315.827 429.675 316.03C430.369 316.243 430.945 316.472 431.403 316.718C431.862 316.963 432.23 317.304 432.507 317.742C432.795 318.168 432.939 318.712 432.939 319.374C432.939 320.014 432.779 320.579 432.459 321.07C432.15 321.56 431.697 321.944 431.099 322.222C430.513 322.499 429.814 322.638 429.003 322.638C427.478 322.638 426.23 322.163 425.259 321.214L426.091 320.286C426.539 320.648 426.993 320.926 427.451 321.118C427.91 321.299 428.422 321.39 428.987 321.39C429.67 321.39 430.235 321.224 430.683 320.894C431.131 320.552 431.355 320.062 431.355 319.422C431.355 319.059 431.286 318.76 431.147 318.526C431.009 318.28 430.769 318.062 430.427 317.87C430.097 317.678 429.611 317.486 428.971 317.294C427.841 316.952 427.014 316.542 426.491 316.062C425.969 315.582 425.707 314.931 425.707 314.11C425.707 313.555 425.851 313.059 426.139 312.622C426.438 312.184 426.849 311.843 427.371 311.598C427.905 311.352 428.507 311.23 429.179 311.23ZM439.066 313.822C439.834 313.822 440.431 314.051 440.858 314.51C441.295 314.968 441.514 315.598 441.514 316.398V322.446H440.042V316.606C440.042 316.008 439.925 315.587 439.69 315.342C439.466 315.096 439.135 314.974 438.698 314.974C438.261 314.974 437.871 315.102 437.53 315.358C437.189 315.614 436.869 315.976 436.57 316.446V322.446H435.098V310.638L436.57 310.478V315.182C437.231 314.275 438.063 313.822 439.066 313.822ZM447.641 313.822C448.825 313.822 449.742 314.216 450.393 315.006C451.054 315.795 451.385 316.867 451.385 318.222C451.385 319.096 451.236 319.87 450.937 320.542C450.638 321.203 450.206 321.72 449.641 322.094C449.076 322.456 448.404 322.638 447.625 322.638C446.441 322.638 445.518 322.243 444.857 321.454C444.196 320.664 443.865 319.592 443.865 318.238C443.865 317.363 444.014 316.595 444.313 315.934C444.612 315.262 445.044 314.744 445.609 314.382C446.174 314.008 446.852 313.822 447.641 313.822ZM447.641 315.006C446.18 315.006 445.449 316.083 445.449 318.238C445.449 320.382 446.174 321.454 447.625 321.454C449.076 321.454 449.801 320.376 449.801 318.222C449.801 316.078 449.081 315.006 447.641 315.006ZM457.481 313.822C457.78 313.822 458.057 313.854 458.313 313.918L458.041 315.358C457.785 315.294 457.54 315.262 457.305 315.262C456.782 315.262 456.361 315.454 456.041 315.838C455.721 316.222 455.47 316.819 455.289 317.63V322.446H453.817V314.014H455.081L455.225 315.726C455.449 315.096 455.753 314.622 456.137 314.302C456.521 313.982 456.969 313.822 457.481 313.822ZM465.872 317.982C465.872 318.227 465.862 318.478 465.84 318.734H460.464C460.528 319.662 460.763 320.344 461.168 320.782C461.574 321.219 462.096 321.438 462.736 321.438C463.142 321.438 463.515 321.379 463.856 321.262C464.198 321.144 464.555 320.958 464.928 320.702L465.568 321.582C464.672 322.286 463.691 322.638 462.624 322.638C461.451 322.638 460.534 322.254 459.872 321.486C459.222 320.718 458.896 319.662 458.896 318.318C458.896 317.443 459.035 316.67 459.312 315.998C459.6 315.315 460.006 314.782 460.528 314.398C461.062 314.014 461.686 313.822 462.4 313.822C463.52 313.822 464.379 314.19 464.976 314.926C465.574 315.662 465.872 316.68 465.872 317.982ZM464.416 317.55C464.416 316.718 464.251 316.083 463.92 315.646C463.59 315.208 463.094 314.99 462.432 314.99C461.227 314.99 460.571 315.875 460.464 317.646H464.416V317.55ZM474.41 309.63V324.014H474.058V309.63H474.41ZM493.237 322.446H491.765L491.381 317.47C491.221 315.518 491.131 314.019 491.109 312.974L488.725 321.198H487.301L484.789 312.958C484.789 314.291 484.72 315.832 484.581 317.582L484.213 322.446H482.773L483.685 311.422H485.733L488.053 319.438L490.261 311.422H492.325L493.237 322.446ZM501.434 320.478C501.434 320.819 501.493 321.075 501.61 321.246C501.728 321.406 501.904 321.528 502.138 321.614L501.802 322.638C501.365 322.584 501.013 322.462 500.746 322.27C500.48 322.078 500.282 321.779 500.154 321.374C499.589 322.216 498.752 322.638 497.642 322.638C496.81 322.638 496.154 322.403 495.674 321.934C495.194 321.464 494.954 320.851 494.954 320.094C494.954 319.198 495.274 318.51 495.914 318.03C496.565 317.55 497.482 317.31 498.666 317.31H499.962V316.686C499.962 316.088 499.818 315.662 499.53 315.406C499.242 315.15 498.8 315.022 498.202 315.022C497.584 315.022 496.826 315.171 495.93 315.47L495.562 314.398C496.608 314.014 497.578 313.822 498.474 313.822C499.466 313.822 500.208 314.067 500.698 314.558C501.189 315.038 501.434 315.726 501.434 316.622V320.478ZM497.978 321.534C498.821 321.534 499.482 321.096 499.962 320.222V318.286H498.858C497.301 318.286 496.522 318.862 496.522 320.014C496.522 320.515 496.645 320.894 496.89 321.15C497.136 321.406 497.498 321.534 497.978 321.534ZM505.981 322.638C505.437 322.638 505.005 322.478 504.685 322.158C504.376 321.827 504.221 321.368 504.221 320.782V310.622L505.693 310.446V320.75C505.693 320.984 505.731 321.155 505.805 321.262C505.891 321.368 506.029 321.422 506.221 321.422C506.424 321.422 506.605 321.39 506.765 321.326L507.149 322.35C506.797 322.542 506.408 322.638 505.981 322.638ZM510.461 314.014V322.446H508.989V314.014H510.461ZM509.709 309.966C510.018 309.966 510.269 310.062 510.461 310.254C510.653 310.446 510.749 310.686 510.749 310.974C510.749 311.262 510.653 311.502 510.461 311.694C510.269 311.875 510.018 311.966 509.709 311.966C509.41 311.966 509.165 311.875 508.973 311.694C508.781 311.502 508.685 311.262 508.685 310.974C508.685 310.686 508.781 310.446 508.973 310.254C509.165 310.062 509.41 309.966 509.709 309.966ZM517.36 313.822C518.32 313.822 519.083 314.211 519.648 314.99C520.214 315.758 520.496 316.835 520.496 318.222C520.496 319.096 520.363 319.87 520.096 320.542C519.83 321.203 519.446 321.72 518.944 322.094C518.443 322.456 517.856 322.638 517.184 322.638C516.299 322.638 515.552 322.264 514.944 321.518L514.8 322.446H513.504V310.622L514.976 310.446V315.07C515.584 314.238 516.379 313.822 517.36 313.822ZM516.832 321.47C517.483 321.47 517.99 321.208 518.352 320.686C518.726 320.152 518.912 319.331 518.912 318.222C518.912 317.08 518.742 316.259 518.4 315.758C518.059 315.246 517.574 314.99 516.944 314.99C516.198 314.99 515.542 315.427 514.976 316.302V320.334C515.2 320.686 515.472 320.963 515.792 321.166C516.123 321.368 516.47 321.47 516.832 321.47ZM529.276 322.446H528.012L527.9 321.134C527.58 321.656 527.212 322.04 526.796 322.286C526.38 322.52 525.874 322.638 525.276 322.638C524.54 322.638 523.964 322.414 523.548 321.966C523.132 321.518 522.924 320.883 522.924 320.062V314.014H524.396V319.902C524.396 320.478 524.498 320.888 524.7 321.134C524.903 321.368 525.234 321.486 525.692 321.486C526.514 321.486 527.218 321 527.804 320.03V314.014H529.276V322.446ZM532.701 320.414C533.021 320.414 533.288 320.52 533.501 320.734C533.714 320.947 533.821 321.208 533.821 321.518C533.821 321.848 533.725 322.227 533.533 322.654L532.461 325.102H531.405L532.045 322.446C531.906 322.339 531.794 322.206 531.709 322.046C531.634 321.886 531.597 321.71 531.597 321.518C531.597 321.208 531.704 320.947 531.917 320.734C532.13 320.52 532.392 320.414 532.701 320.414ZM544.331 311.23C544.992 311.23 545.547 311.315 545.995 311.486C546.454 311.656 546.918 311.934 547.387 312.318L546.555 313.294C545.883 312.75 545.174 312.478 544.427 312.478C543.51 312.478 542.768 312.83 542.203 313.534C541.648 314.238 541.371 315.368 541.371 316.926C541.371 318.44 541.648 319.56 542.203 320.286C542.758 321 543.494 321.358 544.411 321.358C544.88 321.358 545.291 321.278 545.643 321.118C545.995 320.958 546.368 320.734 546.763 320.446L547.515 321.406C547.174 321.758 546.736 322.051 546.203 322.286C545.67 322.52 545.056 322.638 544.363 322.638C543.467 322.638 542.667 322.419 541.963 321.982C541.27 321.534 540.726 320.883 540.331 320.03C539.947 319.166 539.755 318.131 539.755 316.926C539.755 315.72 539.958 314.691 540.363 313.838C540.768 312.974 541.318 312.323 542.011 311.886C542.704 311.448 543.478 311.23 544.331 311.23ZM555.3 322.446L554.468 319.678H550.292L549.46 322.446H547.924L551.46 311.422H553.38L556.9 322.446H555.3ZM550.66 318.446H554.1L552.388 312.686L550.66 318.446Z" fill="white"/>
<path d="M598.378 76.7871C599.039 76.7871 599.594 76.8724 600.042 77.0431C600.501 77.2138 600.965 77.4911 601.434 77.8751L600.602 78.8511C599.93 78.3071 599.221 78.0351 598.474 78.0351C597.557 78.0351 596.815 78.3871 596.25 79.0911C595.695 79.7951 595.418 80.9258 595.418 82.4831C595.418 83.9978 595.695 85.1178 596.25 85.8431C596.805 86.5578 597.541 86.9151 598.458 86.9151C598.927 86.9151 599.338 86.8351 599.69 86.6751C600.042 86.5151 600.415 86.2911 600.81 86.0031L601.562 86.9631C601.221 87.3151 600.783 87.6084 600.25 87.8431C599.717 88.0778 599.103 88.1951 598.41 88.1951C597.514 88.1951 596.714 87.9764 596.01 87.5391C595.317 87.0911 594.773 86.4404 594.378 85.5871C593.994 84.7231 593.802 83.6884 593.802 82.4831C593.802 81.2778 594.005 80.2484 594.41 79.3951C594.815 78.5311 595.365 77.8804 596.058 77.4431C596.751 77.0058 597.525 76.7871 598.378 76.7871ZM609.401 88.0031H608.137L608.025 86.6911C607.705 87.2138 607.337 87.5978 606.921 87.8431C606.505 88.0778 605.999 88.1951 605.401 88.1951C604.665 88.1951 604.089 87.9711 603.673 87.5231C603.257 87.0751 603.049 86.4404 603.049 85.6191V79.5711H604.521V85.4591C604.521 86.0351 604.623 86.4458 604.825 86.6911C605.028 86.9258 605.359 87.0431 605.817 87.0431C606.639 87.0431 607.343 86.5578 607.929 85.5871V79.5711H609.401V88.0031ZM616.106 79.3791C616.405 79.3791 616.682 79.4111 616.938 79.4751L616.666 80.9151C616.41 80.8511 616.165 80.8191 615.93 80.8191C615.407 80.8191 614.986 81.0111 614.666 81.3951C614.346 81.7791 614.095 82.3764 613.914 83.1871V88.0031H612.442V79.5711H613.706L613.85 81.2831C614.074 80.6538 614.378 80.1791 614.762 79.8591C615.146 79.5391 615.594 79.3791 616.106 79.3791ZM622.278 79.3791C622.576 79.3791 622.854 79.4111 623.11 79.4751L622.838 80.9151C622.582 80.8511 622.336 80.8191 622.102 80.8191C621.579 80.8191 621.158 81.0111 620.838 81.3951C620.518 81.7791 620.267 82.3764 620.086 83.1871V88.0031H618.614V79.5711H619.878L620.022 81.2831C620.246 80.6538 620.55 80.1791 620.934 79.8591C621.318 79.5391 621.766 79.3791 622.278 79.3791ZM630.669 83.5391C630.669 83.7844 630.659 84.0351 630.637 84.2911H625.261C625.325 85.2191 625.56 85.9018 625.965 86.3391C626.371 86.7764 626.893 86.9951 627.533 86.9951C627.939 86.9951 628.312 86.9364 628.653 86.8191C628.995 86.7018 629.352 86.5151 629.725 86.2591L630.365 87.1391C629.469 87.8431 628.488 88.1951 627.421 88.1951C626.248 88.1951 625.331 87.8111 624.669 87.0431C624.019 86.2751 623.693 85.2191 623.693 83.8751C623.693 83.0004 623.832 82.2271 624.109 81.5551C624.397 80.8724 624.803 80.3391 625.325 79.9551C625.859 79.5711 626.483 79.3791 627.197 79.3791C628.317 79.3791 629.176 79.7471 629.773 80.4831C630.371 81.2191 630.669 82.2378 630.669 83.5391ZM629.213 83.1071C629.213 82.2751 629.048 81.6404 628.717 81.2031C628.387 80.7658 627.891 80.5471 627.229 80.5471C626.024 80.5471 625.368 81.4324 625.261 83.2031H629.213V83.1071ZM636.988 79.3791C637.756 79.3791 638.353 79.6084 638.78 80.0671C639.217 80.5258 639.436 81.1551 639.436 81.9551V88.0031H637.964V82.1631C637.964 81.5658 637.852 81.1444 637.628 80.8991C637.404 80.6538 637.073 80.5311 636.636 80.5311C636.188 80.5311 635.793 80.6591 635.452 80.9151C635.111 81.1711 634.791 81.5391 634.492 82.0191V88.0031H633.02V79.5711H634.284L634.412 80.8191C634.711 80.3711 635.079 80.0191 635.516 79.7631C635.964 79.5071 636.455 79.3791 636.988 79.3791ZM646.651 87.6191C646.096 88.0031 645.467 88.1951 644.763 88.1951C644.048 88.1951 643.488 87.9924 643.083 87.5871C642.688 87.1711 642.491 86.5738 642.491 85.7951V80.7071H641.019V79.5711H642.491V77.6671L643.963 77.4911V79.5711H645.963L645.803 80.7071H643.963V85.7311C643.963 86.1684 644.038 86.4884 644.187 86.6911C644.347 86.8831 644.608 86.9791 644.971 86.9791C645.302 86.9791 645.675 86.8671 646.091 86.6431L646.651 87.6191ZM654.011 76.9791V86.6751H658.539L658.363 88.0031H652.491V76.9791H654.011ZM663.141 79.3791C664.325 79.3791 665.242 79.7738 665.893 80.5631C666.554 81.3524 666.885 82.4244 666.885 83.7791C666.885 84.6538 666.736 85.4271 666.437 86.0991C666.138 86.7604 665.706 87.2778 665.141 87.6511C664.576 88.0138 663.904 88.1951 663.125 88.1951C661.941 88.1951 661.018 87.8004 660.357 87.0111C659.696 86.2218 659.365 85.1498 659.365 83.7951C659.365 82.9204 659.514 82.1524 659.813 81.4911C660.112 80.8191 660.544 80.3018 661.109 79.9391C661.674 79.5658 662.352 79.3791 663.141 79.3791ZM663.141 80.5631C661.68 80.5631 660.949 81.6404 660.949 83.7951C660.949 85.9391 661.674 87.0111 663.125 87.0111C664.576 87.0111 665.301 85.9338 665.301 83.7791C665.301 81.6351 664.581 80.5631 663.141 80.5631ZM672.389 79.3791C672.89 79.3791 673.349 79.4538 673.765 79.6031C674.181 79.7418 674.581 79.9711 674.965 80.2911L674.261 81.2191C673.962 81.0058 673.669 80.8511 673.381 80.7551C673.104 80.6484 672.794 80.5951 672.453 80.5951C671.77 80.5951 671.237 80.8671 670.853 81.4111C670.48 81.9551 670.293 82.7604 670.293 83.8271C670.293 84.8938 670.48 85.6831 670.853 86.1951C671.226 86.6964 671.76 86.9471 672.453 86.9471C672.784 86.9471 673.088 86.8991 673.365 86.8031C673.642 86.6964 673.952 86.5311 674.293 86.3071L674.965 87.2671C674.197 87.8858 673.338 88.1951 672.389 88.1951C671.248 88.1951 670.346 87.8111 669.685 87.0431C669.034 86.2751 668.709 85.2138 668.709 83.8591C668.709 82.9631 668.858 82.1791 669.157 81.5071C669.456 80.8351 669.877 80.3124 670.421 79.9391C670.976 79.5658 671.632 79.3791 672.389 79.3791ZM682.481 86.0351C682.481 86.3764 682.54 86.6324 682.657 86.8031C682.775 86.9631 682.951 87.0858 683.185 87.1711L682.849 88.1951C682.412 88.1418 682.06 88.0191 681.793 87.8271C681.527 87.6351 681.329 87.3364 681.201 86.9311C680.636 87.7738 679.799 88.1951 678.689 88.1951C677.857 88.1951 677.201 87.9604 676.721 87.4911C676.241 87.0218 676.001 86.4084 676.001 85.6511C676.001 84.7551 676.321 84.0671 676.961 83.5871C677.612 83.1071 678.529 82.8671 679.713 82.8671H681.009V82.2431C681.009 81.6458 680.865 81.2191 680.577 80.9631C680.289 80.7071 679.847 80.5791 679.249 80.5791C678.631 80.5791 677.873 80.7284 676.977 81.0271L676.609 79.9551C677.655 79.5711 678.625 79.3791 679.521 79.3791C680.513 79.3791 681.255 79.6244 681.745 80.1151C682.236 80.5951 682.481 81.2831 682.481 82.1791V86.0351ZM679.025 87.0911C679.868 87.0911 680.529 86.6538 681.009 85.7791V83.8431H679.905C678.348 83.8431 677.569 84.4191 677.569 85.5711C677.569 86.0724 677.692 86.4511 677.937 86.7071C678.183 86.9631 678.545 87.0911 679.025 87.0911ZM689.76 87.6191C689.206 88.0031 688.576 88.1951 687.872 88.1951C687.158 88.1951 686.598 87.9924 686.192 87.5871C685.798 87.1711 685.6 86.5738 685.6 85.7951V80.7071H684.128V79.5711H685.6V77.6671L687.072 77.4911V79.5711H689.072L688.912 80.7071H687.072V85.7311C687.072 86.1684 687.147 86.4884 687.296 86.6911C687.456 86.8831 687.718 86.9791 688.08 86.9791C688.411 86.9791 688.784 86.8671 689.2 86.6431L689.76 87.6191ZM692.758 79.5711V88.0031H691.286V79.5711H692.758ZM692.006 75.5231C692.315 75.5231 692.566 75.6191 692.758 75.8111C692.95 76.0031 693.046 76.2431 693.046 76.5311C693.046 76.8191 692.95 77.0591 692.758 77.2511C692.566 77.4324 692.315 77.5231 692.006 77.5231C691.707 77.5231 691.462 77.4324 691.27 77.2511C691.078 77.0591 690.982 76.8191 690.982 76.5311C690.982 76.2431 691.078 76.0031 691.27 75.8111C691.462 75.6191 691.707 75.5231 692.006 75.5231ZM698.969 79.3791C700.153 79.3791 701.071 79.7738 701.721 80.5631C702.383 81.3524 702.713 82.4244 702.713 83.7791C702.713 84.6538 702.564 85.4271 702.265 86.0991C701.967 86.7604 701.535 87.2778 700.969 87.6511C700.404 88.0138 699.732 88.1951 698.953 88.1951C697.769 88.1951 696.847 87.8004 696.185 87.0111C695.524 86.2218 695.193 85.1498 695.193 83.7951C695.193 82.9204 695.343 82.1524 695.641 81.4911C695.94 80.8191 696.372 80.3018 696.937 79.9391C697.503 79.5658 698.18 79.3791 698.969 79.3791ZM698.969 80.5631C697.508 80.5631 696.777 81.6404 696.777 83.7951C696.777 85.9391 697.503 87.0111 698.953 87.0111C700.404 87.0111 701.129 85.9338 701.129 83.7791C701.129 81.6351 700.409 80.5631 698.969 80.5631ZM709.113 79.3791C709.881 79.3791 710.478 79.6084 710.905 80.0671C711.342 80.5258 711.561 81.1551 711.561 81.9551V88.0031H710.089V82.1631C710.089 81.5658 709.977 81.1444 709.753 80.8991C709.529 80.6538 709.198 80.5311 708.761 80.5311C708.313 80.5311 707.918 80.6591 707.577 80.9151C707.236 81.1711 706.916 81.5391 706.617 82.0191V88.0031H705.145V79.5711H706.409L706.537 80.8191C706.836 80.3711 707.204 80.0191 707.641 79.7631C708.089 79.5071 708.58 79.3791 709.113 79.3791Z" fill="white"/>
</svg>
