<svg width="1001" height="496" viewBox="0 0 1001 496" fill="none" xmlns="http://www.w3.org/2000/svg">
<g opacity="0.29827">
<path d="M1008.08 164.234L443.182 -354.837V-744.244L28.1096 -767C24.9043 -759.474 4.36709 -737.784 7.57176 -725.694C11.43 -711.235 30.8387 -715.857 36.4776 -706.553C43.0661 -695.59 31.7291 -651.025 28.3457 -638.166C21.8759 -613.809 7.09676 -594.076 2.82235 -569.719C-4.35982 -528.829 10.1824 -532.088 37.7242 -506.546C84.141 -463.464 46.9244 -418.78 58.6176 -368.171C68.1146 -326.924 109.605 -305.65 124.8 -264.405C136.553 -232.64 152.697 -224.523 177.746 -201.291C177.153 -215.396 164.51 -256.997 188.253 -253.323C211.817 -249.708 202.736 -214.982 207.247 -200.461C211.045 -188.372 237.933 -164.194 215.616 -153.052C208.196 -149.378 187.066 -164.016 178.577 -167.927C184.572 -149.259 180.774 -129.882 190.271 -112.044C201.608 -90.7695 213.835 -98.9469 228.853 -87.3909C244.344 -75.4794 242.683 -61.7901 235.797 -43.7747C228.615 -24.9886 221.196 -27.8922 232.592 -5.25421C240.843 11.1015 254.85 31.8431 266.9 44.2878C273.904 51.5176 281.502 53.177 288.506 62.4216C294.323 70.1255 292.067 80.2003 299.012 87.1334C310.883 99.0449 331.006 99.2228 340.384 114.808C350.831 132.171 338.96 145.268 369.706 143.668C371.309 178.395 377.897 209.863 377.541 244.589C394.695 251.404 422.414 243.285 440.399 239.67C458.266 263.73 481.355 247.019 501.774 260.116C510.678 265.805 508.837 280.028 514.239 285.005C525.339 295.198 533.529 288.798 547.301 292.354C557.51 294.961 565.404 302.428 575.138 305.154C584.338 307.703 599.475 301.717 606.301 309.836C614.492 319.555 600.78 337.333 613.127 345.155C623.395 351.674 638.115 336.148 648.088 338.4C659.721 341.066 693.079 371.468 701.271 381.482C710.59 392.919 719.969 414.254 725.25 428.95C733.501 451.943 732.373 463.203 749.408 480.033C760.27 490.76 749.942 491.53 767.63 494.671C779.204 496.745 794.518 488.389 806.212 487.085C830.549 484.419 855.122 489.041 879.102 484.478C901.421 480.211 922.729 473.218 945.64 469.959C965.465 467.114 1000.37 469.307 1017.94 459.885C1036.99 449.751 1038.71 426.817 1011.17 431.084C1008.97 416.447 1018.77 396.238 1007.85 386.105C1023.04 365.364 1028.56 350.727 1030.93 325.363C1032 314.221 1032.48 301.895 1038 292.531C1043.4 283.287 1058.59 277.775 1061.56 269.834C1066.13 257.508 1058.83 251.996 1053.25 245.122C1049.69 240.678 1039.54 242.811 1036.63 238.9C1031.23 231.729 1036.57 224.322 1033.6 217.092C1024.94 196.173 1014.61 187.935 1008.08 164.23C1008.26 168.201 1008.44 172.231 1008.2 176.142" stroke="white" stroke-width="2" stroke-linecap="round" stroke-linejoin="round"/>
</g>
<path d="M729.299 85C720.74 99.3528 740.787 104.389 756.833 113.77C761.587 116.55 762.041 121.142 757.036 123.92C746.275 129.894 705.473 121.204 708.061 129.078C710.734 137.211 745.23 148.59 746.785 149.369C760.438 156.202 764.885 173.539 757.365 183.044C752.015 189.807 716.54 187.528 705.381 185.276C632.306 170.526 665.234 172.285 583.148 167.705C576.864 167.354 570.279 167.175 564.244 168.307C558.028 169.472 506 144.916 498 135C466.5 113.77 448.827 130.239 440.5 141.5C437.945 144.955 427.696 209.085 425 212.5C425 242.5 365.5 216.448 365.5 225.5" stroke="white" stroke-width="2"/>
<path fill-rule="evenodd" clip-rule="evenodd" d="M365.5 230.969C369.09 230.969 372 228.066 372 224.485C372 220.903 369.09 218 365.5 218C361.91 218 359 220.903 359 224.485C359 228.066 361.91 230.969 365.5 230.969Z" fill="#4AF6CD"/>
<path fill-rule="evenodd" clip-rule="evenodd" d="M661 363.313C662.657 363.313 664 361.973 664 360.32C664 358.667 662.657 357.327 661 357.327C659.343 357.327 658 358.667 658 360.32C658 361.973 659.343 363.313 661 363.313Z" fill="#4AF6CD"/>
<path fill-rule="evenodd" clip-rule="evenodd" d="M725 471.057C726.657 471.057 728 469.717 728 468.064C728 466.411 726.657 465.071 725 465.071C723.343 465.071 722 466.411 722 468.064C722 469.717 723.343 471.057 725 471.057Z" fill="#4AF6CD"/>
<path fill-rule="evenodd" clip-rule="evenodd" d="M572 321.986C573.657 321.986 575 320.646 575 318.993C575 317.34 573.657 316 572 316C570.343 316 569 317.34 569 318.993C569 320.646 570.343 321.986 572 321.986Z" fill="#4AF6CD"/>
<path fill-rule="evenodd" clip-rule="evenodd" d="M729.5 91.958C733.09 91.958 736 89.0548 736 85.4734C736 81.8921 733.09 78.9888 729.5 78.9888C725.91 78.9888 723 81.8921 723 85.4734C723 89.0548 725.91 91.958 729.5 91.958Z" fill="#4AF6CD"/>
<path d="M189.021 218.976L188.845 220.192H184.573V223.792H188.285V225.008H184.573V228.784H189.149V230H183.053V218.976H189.021ZM197.028 228.032C197.028 228.373 197.087 228.629 197.204 228.8C197.321 228.96 197.497 229.083 197.732 229.168L197.396 230.192C196.959 230.139 196.607 230.016 196.34 229.824C196.073 229.632 195.876 229.333 195.748 228.928C195.183 229.771 194.345 230.192 193.236 230.192C192.404 230.192 191.748 229.957 191.268 229.488C190.788 229.019 190.548 228.405 190.548 227.648C190.548 226.752 190.868 226.064 191.508 225.584C192.159 225.104 193.076 224.864 194.26 224.864H195.556V224.24C195.556 223.643 195.412 223.216 195.124 222.96C194.836 222.704 194.393 222.576 193.796 222.576C193.177 222.576 192.42 222.725 191.524 223.024L191.156 221.952C192.201 221.568 193.172 221.376 194.068 221.376C195.06 221.376 195.801 221.621 196.292 222.112C196.783 222.592 197.028 223.28 197.028 224.176V228.032ZM193.572 229.088C194.415 229.088 195.076 228.651 195.556 227.776V225.84H194.452C192.895 225.84 192.116 226.416 192.116 227.568C192.116 228.069 192.239 228.448 192.484 228.704C192.729 228.96 193.092 229.088 193.572 229.088ZM202.183 221.376C202.759 221.376 203.276 221.456 203.735 221.616C204.194 221.776 204.631 222.016 205.047 222.336L204.423 223.264C204.039 223.019 203.671 222.837 203.319 222.72C202.978 222.603 202.615 222.544 202.231 222.544C201.751 222.544 201.372 222.645 201.095 222.848C200.818 223.04 200.679 223.307 200.679 223.648C200.679 223.989 200.807 224.256 201.063 224.448C201.33 224.64 201.804 224.827 202.487 225.008C203.426 225.243 204.124 225.563 204.583 225.968C205.052 226.373 205.287 226.928 205.287 227.632C205.287 228.464 204.962 229.099 204.311 229.536C203.671 229.973 202.887 230.192 201.959 230.192C200.679 230.192 199.618 229.824 198.775 229.088L199.559 228.192C200.274 228.736 201.063 229.008 201.927 229.008C202.482 229.008 202.919 228.896 203.239 228.672C203.57 228.437 203.735 228.123 203.735 227.728C203.735 227.44 203.676 227.211 203.559 227.04C203.442 226.859 203.239 226.704 202.951 226.576C202.663 226.437 202.242 226.293 201.687 226.144C200.791 225.909 200.14 225.595 199.735 225.2C199.34 224.805 199.143 224.304 199.143 223.696C199.143 223.259 199.271 222.864 199.527 222.512C199.794 222.149 200.156 221.872 200.615 221.68C201.084 221.477 201.607 221.376 202.183 221.376ZM211.62 229.616C211.065 230 210.436 230.192 209.732 230.192C209.017 230.192 208.457 229.989 208.052 229.584C207.657 229.168 207.46 228.571 207.46 227.792V222.704H205.988V221.568H207.46V219.664L208.932 219.488V221.568H210.932L210.772 222.704H208.932V227.728C208.932 228.165 209.006 228.485 209.156 228.688C209.316 228.88 209.577 228.976 209.94 228.976C210.27 228.976 210.644 228.864 211.06 228.64L211.62 229.616ZM220.179 218.784C220.915 218.784 221.545 218.891 222.067 219.104C222.59 219.307 223.097 219.627 223.587 220.064L222.755 220.992C222.339 220.661 221.929 220.421 221.523 220.272C221.129 220.112 220.702 220.032 220.243 220.032C219.667 220.032 219.193 220.165 218.819 220.432C218.446 220.699 218.259 221.088 218.259 221.6C218.259 221.92 218.323 222.192 218.451 222.416C218.579 222.629 218.814 222.827 219.155 223.008C219.507 223.189 220.014 223.381 220.675 223.584C221.369 223.797 221.945 224.027 222.403 224.272C222.862 224.517 223.23 224.859 223.507 225.296C223.795 225.723 223.939 226.267 223.939 226.928C223.939 227.568 223.779 228.133 223.459 228.624C223.15 229.115 222.697 229.499 222.099 229.776C221.513 230.053 220.814 230.192 220.003 230.192C218.478 230.192 217.23 229.717 216.259 228.768L217.091 227.84C217.539 228.203 217.993 228.48 218.451 228.672C218.91 228.853 219.422 228.944 219.987 228.944C220.67 228.944 221.235 228.779 221.683 228.448C222.131 228.107 222.355 227.616 222.355 226.976C222.355 226.613 222.286 226.315 222.147 226.08C222.009 225.835 221.769 225.616 221.427 225.424C221.097 225.232 220.611 225.04 219.971 224.848C218.841 224.507 218.014 224.096 217.491 223.616C216.969 223.136 216.707 222.485 216.707 221.664C216.707 221.109 216.851 220.613 217.139 220.176C217.438 219.739 217.849 219.397 218.371 219.152C218.905 218.907 219.507 218.784 220.179 218.784ZM230.066 221.376C230.834 221.376 231.431 221.605 231.858 222.064C232.295 222.523 232.514 223.152 232.514 223.952V230H231.042V224.16C231.042 223.563 230.925 223.141 230.69 222.896C230.466 222.651 230.135 222.528 229.698 222.528C229.261 222.528 228.871 222.656 228.53 222.912C228.189 223.168 227.869 223.531 227.57 224V230H226.098V218.192L227.57 218.032V222.736C228.231 221.829 229.063 221.376 230.066 221.376ZM238.641 221.376C239.825 221.376 240.742 221.771 241.393 222.56C242.054 223.349 242.385 224.421 242.385 225.776C242.385 226.651 242.236 227.424 241.937 228.096C241.638 228.757 241.206 229.275 240.641 229.648C240.076 230.011 239.404 230.192 238.625 230.192C237.441 230.192 236.518 229.797 235.857 229.008C235.196 228.219 234.865 227.147 234.865 225.792C234.865 224.917 235.014 224.149 235.313 223.488C235.612 222.816 236.044 222.299 236.609 221.936C237.174 221.563 237.852 221.376 238.641 221.376ZM238.641 222.56C237.18 222.56 236.449 223.637 236.449 225.792C236.449 227.936 237.174 229.008 238.625 229.008C240.076 229.008 240.801 227.931 240.801 225.776C240.801 223.632 240.081 222.56 238.641 222.56ZM248.481 221.376C248.78 221.376 249.057 221.408 249.313 221.472L249.041 222.912C248.785 222.848 248.54 222.816 248.305 222.816C247.782 222.816 247.361 223.008 247.041 223.392C246.721 223.776 246.47 224.373 246.289 225.184V230H244.817V221.568H246.081L246.225 223.28C246.449 222.651 246.753 222.176 247.137 221.856C247.521 221.536 247.969 221.376 248.481 221.376ZM256.872 225.536C256.872 225.781 256.862 226.032 256.84 226.288H251.464C251.528 227.216 251.763 227.899 252.168 228.336C252.574 228.773 253.096 228.992 253.736 228.992C254.142 228.992 254.515 228.933 254.856 228.816C255.198 228.699 255.555 228.512 255.928 228.256L256.568 229.136C255.672 229.84 254.691 230.192 253.624 230.192C252.451 230.192 251.534 229.808 250.872 229.04C250.222 228.272 249.896 227.216 249.896 225.872C249.896 224.997 250.035 224.224 250.312 223.552C250.6 222.869 251.006 222.336 251.528 221.952C252.062 221.568 252.686 221.376 253.4 221.376C254.52 221.376 255.379 221.744 255.976 222.48C256.574 223.216 256.872 224.235 256.872 225.536ZM255.416 225.104C255.416 224.272 255.251 223.637 254.92 223.2C254.59 222.763 254.094 222.544 253.432 222.544C252.227 222.544 251.571 223.429 251.464 225.2H255.416V225.104ZM265.41 217.184V231.568H265.058V217.184H265.41ZM284.237 230H282.765L282.381 225.024C282.221 223.072 282.131 221.573 282.109 220.528L279.725 228.752H278.301L275.789 220.512C275.789 221.845 275.72 223.387 275.581 225.136L275.213 230H273.773L274.685 218.976H276.733L279.053 226.992L281.261 218.976H283.325L284.237 230ZM292.434 228.032C292.434 228.373 292.493 228.629 292.61 228.8C292.728 228.96 292.904 229.083 293.138 229.168L292.802 230.192C292.365 230.139 292.013 230.016 291.746 229.824C291.48 229.632 291.282 229.333 291.154 228.928C290.589 229.771 289.752 230.192 288.642 230.192C287.81 230.192 287.154 229.957 286.674 229.488C286.194 229.019 285.954 228.405 285.954 227.648C285.954 226.752 286.274 226.064 286.914 225.584C287.565 225.104 288.482 224.864 289.666 224.864H290.962V224.24C290.962 223.643 290.818 223.216 290.53 222.96C290.242 222.704 289.8 222.576 289.202 222.576C288.584 222.576 287.826 222.725 286.93 223.024L286.562 221.952C287.608 221.568 288.578 221.376 289.474 221.376C290.466 221.376 291.208 221.621 291.698 222.112C292.189 222.592 292.434 223.28 292.434 224.176V228.032ZM288.978 229.088C289.821 229.088 290.482 228.651 290.962 227.776V225.84H289.858C288.301 225.84 287.522 226.416 287.522 227.568C287.522 228.069 287.645 228.448 287.89 228.704C288.136 228.96 288.498 229.088 288.978 229.088ZM296.981 230.192C296.437 230.192 296.005 230.032 295.685 229.712C295.376 229.381 295.221 228.923 295.221 228.336V218.176L296.693 218V228.304C296.693 228.539 296.731 228.709 296.805 228.816C296.891 228.923 297.029 228.976 297.221 228.976C297.424 228.976 297.605 228.944 297.765 228.88L298.149 229.904C297.797 230.096 297.408 230.192 296.981 230.192ZM301.461 221.568V230H299.989V221.568H301.461ZM300.709 217.52C301.018 217.52 301.269 217.616 301.461 217.808C301.653 218 301.749 218.24 301.749 218.528C301.749 218.816 301.653 219.056 301.461 219.248C301.269 219.429 301.018 219.52 300.709 219.52C300.41 219.52 300.165 219.429 299.973 219.248C299.781 219.056 299.685 218.816 299.685 218.528C299.685 218.24 299.781 218 299.973 217.808C300.165 217.616 300.41 217.52 300.709 217.52ZM308.36 221.376C309.32 221.376 310.083 221.765 310.648 222.544C311.214 223.312 311.496 224.389 311.496 225.776C311.496 226.651 311.363 227.424 311.096 228.096C310.83 228.757 310.446 229.275 309.944 229.648C309.443 230.011 308.856 230.192 308.184 230.192C307.299 230.192 306.552 229.819 305.944 229.072L305.8 230H304.504V218.176L305.976 218V222.624C306.584 221.792 307.379 221.376 308.36 221.376ZM307.832 229.024C308.483 229.024 308.99 228.763 309.352 228.24C309.726 227.707 309.912 226.885 309.912 225.776C309.912 224.635 309.742 223.813 309.4 223.312C309.059 222.8 308.574 222.544 307.944 222.544C307.198 222.544 306.542 222.981 305.976 223.856V227.888C306.2 228.24 306.472 228.517 306.792 228.72C307.123 228.923 307.47 229.024 307.832 229.024ZM320.276 230H319.012L318.9 228.688C318.58 229.211 318.212 229.595 317.796 229.84C317.38 230.075 316.874 230.192 316.276 230.192C315.54 230.192 314.964 229.968 314.548 229.52C314.132 229.072 313.924 228.437 313.924 227.616V221.568H315.396V227.456C315.396 228.032 315.498 228.443 315.7 228.688C315.903 228.923 316.234 229.04 316.692 229.04C317.514 229.04 318.218 228.555 318.804 227.584V221.568H320.276V230ZM323.701 227.968C324.021 227.968 324.288 228.075 324.501 228.288C324.714 228.501 324.821 228.763 324.821 229.072C324.821 229.403 324.725 229.781 324.533 230.208L323.461 232.656H322.405L323.045 230C322.906 229.893 322.794 229.76 322.709 229.6C322.634 229.44 322.597 229.264 322.597 229.072C322.597 228.763 322.704 228.501 322.917 228.288C323.13 228.075 323.392 227.968 323.701 227.968ZM335.331 218.784C335.992 218.784 336.547 218.869 336.995 219.04C337.454 219.211 337.918 219.488 338.387 219.872L337.555 220.848C336.883 220.304 336.174 220.032 335.427 220.032C334.51 220.032 333.768 220.384 333.203 221.088C332.648 221.792 332.371 222.923 332.371 224.48C332.371 225.995 332.648 227.115 333.203 227.84C333.758 228.555 334.494 228.912 335.411 228.912C335.88 228.912 336.291 228.832 336.643 228.672C336.995 228.512 337.368 228.288 337.763 228L338.515 228.96C338.174 229.312 337.736 229.605 337.203 229.84C336.67 230.075 336.056 230.192 335.363 230.192C334.467 230.192 333.667 229.973 332.963 229.536C332.27 229.088 331.726 228.437 331.331 227.584C330.947 226.72 330.755 225.685 330.755 224.48C330.755 223.275 330.958 222.245 331.363 221.392C331.768 220.528 332.318 219.877 333.011 219.44C333.704 219.003 334.478 218.784 335.331 218.784ZM346.3 230L345.468 227.232H341.292L340.46 230H338.924L342.46 218.976H344.38L347.9 230H346.3ZM341.66 226H345.1L343.388 220.24L341.66 226Z" fill="white"/>
<path d="M598.378 76.7871C599.039 76.7871 599.594 76.8724 600.042 77.0431C600.501 77.2138 600.965 77.4911 601.434 77.8751L600.602 78.8511C599.93 78.3071 599.221 78.0351 598.474 78.0351C597.557 78.0351 596.815 78.3871 596.25 79.0911C595.695 79.7951 595.418 80.9258 595.418 82.4831C595.418 83.9978 595.695 85.1178 596.25 85.8431C596.805 86.5578 597.541 86.9151 598.458 86.9151C598.927 86.9151 599.338 86.8351 599.69 86.6751C600.042 86.5151 600.415 86.2911 600.81 86.0031L601.562 86.9631C601.221 87.3151 600.783 87.6084 600.25 87.8431C599.717 88.0778 599.103 88.1951 598.41 88.1951C597.514 88.1951 596.714 87.9764 596.01 87.5391C595.317 87.0911 594.773 86.4404 594.378 85.5871C593.994 84.7231 593.802 83.6884 593.802 82.4831C593.802 81.2778 594.005 80.2484 594.41 79.3951C594.815 78.5311 595.365 77.8804 596.058 77.4431C596.751 77.0058 597.525 76.7871 598.378 76.7871ZM609.401 88.0031H608.137L608.025 86.6911C607.705 87.2138 607.337 87.5978 606.921 87.8431C606.505 88.0778 605.999 88.1951 605.401 88.1951C604.665 88.1951 604.089 87.9711 603.673 87.5231C603.257 87.0751 603.049 86.4404 603.049 85.6191V79.5711H604.521V85.4591C604.521 86.0351 604.623 86.4458 604.825 86.6911C605.028 86.9258 605.359 87.0431 605.817 87.0431C606.639 87.0431 607.343 86.5578 607.929 85.5871V79.5711H609.401V88.0031ZM616.106 79.3791C616.405 79.3791 616.682 79.4111 616.938 79.4751L616.666 80.9151C616.41 80.8511 616.165 80.8191 615.93 80.8191C615.407 80.8191 614.986 81.0111 614.666 81.3951C614.346 81.7791 614.095 82.3764 613.914 83.1871V88.0031H612.442V79.5711H613.706L613.85 81.2831C614.074 80.6538 614.378 80.1791 614.762 79.8591C615.146 79.5391 615.594 79.3791 616.106 79.3791ZM622.278 79.3791C622.576 79.3791 622.854 79.4111 623.11 79.4751L622.838 80.9151C622.582 80.8511 622.336 80.8191 622.102 80.8191C621.579 80.8191 621.158 81.0111 620.838 81.3951C620.518 81.7791 620.267 82.3764 620.086 83.1871V88.0031H618.614V79.5711H619.878L620.022 81.2831C620.246 80.6538 620.55 80.1791 620.934 79.8591C621.318 79.5391 621.766 79.3791 622.278 79.3791ZM630.669 83.5391C630.669 83.7844 630.659 84.0351 630.637 84.2911H625.261C625.325 85.2191 625.56 85.9018 625.965 86.3391C626.371 86.7764 626.893 86.9951 627.533 86.9951C627.939 86.9951 628.312 86.9364 628.653 86.8191C628.995 86.7018 629.352 86.5151 629.725 86.2591L630.365 87.1391C629.469 87.8431 628.488 88.1951 627.421 88.1951C626.248 88.1951 625.331 87.8111 624.669 87.0431C624.019 86.2751 623.693 85.2191 623.693 83.8751C623.693 83.0004 623.832 82.2271 624.109 81.5551C624.397 80.8724 624.803 80.3391 625.325 79.9551C625.859 79.5711 626.483 79.3791 627.197 79.3791C628.317 79.3791 629.176 79.7471 629.773 80.4831C630.371 81.2191 630.669 82.2378 630.669 83.5391ZM629.213 83.1071C629.213 82.2751 629.048 81.6404 628.717 81.2031C628.387 80.7658 627.891 80.5471 627.229 80.5471C626.024 80.5471 625.368 81.4324 625.261 83.2031H629.213V83.1071ZM636.988 79.3791C637.756 79.3791 638.353 79.6084 638.78 80.0671C639.217 80.5258 639.436 81.1551 639.436 81.9551V88.0031H637.964V82.1631C637.964 81.5658 637.852 81.1444 637.628 80.8991C637.404 80.6538 637.073 80.5311 636.636 80.5311C636.188 80.5311 635.793 80.6591 635.452 80.9151C635.111 81.1711 634.791 81.5391 634.492 82.0191V88.0031H633.02V79.5711H634.284L634.412 80.8191C634.711 80.3711 635.079 80.0191 635.516 79.7631C635.964 79.5071 636.455 79.3791 636.988 79.3791ZM646.651 87.6191C646.096 88.0031 645.467 88.1951 644.763 88.1951C644.048 88.1951 643.488 87.9924 643.083 87.5871C642.688 87.1711 642.491 86.5738 642.491 85.7951V80.7071H641.019V79.5711H642.491V77.6671L643.963 77.4911V79.5711H645.963L645.803 80.7071H643.963V85.7311C643.963 86.1684 644.038 86.4884 644.187 86.6911C644.347 86.8831 644.608 86.9791 644.971 86.9791C645.302 86.9791 645.675 86.8671 646.091 86.6431L646.651 87.6191ZM654.011 76.9791V86.6751H658.539L658.363 88.0031H652.491V76.9791H654.011ZM663.141 79.3791C664.325 79.3791 665.242 79.7738 665.893 80.5631C666.554 81.3524 666.885 82.4244 666.885 83.7791C666.885 84.6538 666.736 85.4271 666.437 86.0991C666.138 86.7604 665.706 87.2778 665.141 87.6511C664.576 88.0138 663.904 88.1951 663.125 88.1951C661.941 88.1951 661.018 87.8004 660.357 87.0111C659.696 86.2218 659.365 85.1498 659.365 83.7951C659.365 82.9204 659.514 82.1524 659.813 81.4911C660.112 80.8191 660.544 80.3018 661.109 79.9391C661.674 79.5658 662.352 79.3791 663.141 79.3791ZM663.141 80.5631C661.68 80.5631 660.949 81.6404 660.949 83.7951C660.949 85.9391 661.674 87.0111 663.125 87.0111C664.576 87.0111 665.301 85.9338 665.301 83.7791C665.301 81.6351 664.581 80.5631 663.141 80.5631ZM672.389 79.3791C672.89 79.3791 673.349 79.4538 673.765 79.6031C674.181 79.7418 674.581 79.9711 674.965 80.2911L674.261 81.2191C673.962 81.0058 673.669 80.8511 673.381 80.7551C673.104 80.6484 672.794 80.5951 672.453 80.5951C671.77 80.5951 671.237 80.8671 670.853 81.4111C670.48 81.9551 670.293 82.7604 670.293 83.8271C670.293 84.8938 670.48 85.6831 670.853 86.1951C671.226 86.6964 671.76 86.9471 672.453 86.9471C672.784 86.9471 673.088 86.8991 673.365 86.8031C673.642 86.6964 673.952 86.5311 674.293 86.3071L674.965 87.2671C674.197 87.8858 673.338 88.1951 672.389 88.1951C671.248 88.1951 670.346 87.8111 669.685 87.0431C669.034 86.2751 668.709 85.2138 668.709 83.8591C668.709 82.9631 668.858 82.1791 669.157 81.5071C669.456 80.8351 669.877 80.3124 670.421 79.9391C670.976 79.5658 671.632 79.3791 672.389 79.3791ZM682.481 86.0351C682.481 86.3764 682.54 86.6324 682.657 86.8031C682.775 86.9631 682.951 87.0858 683.185 87.1711L682.849 88.1951C682.412 88.1418 682.06 88.0191 681.793 87.8271C681.527 87.6351 681.329 87.3364 681.201 86.9311C680.636 87.7738 679.799 88.1951 678.689 88.1951C677.857 88.1951 677.201 87.9604 676.721 87.4911C676.241 87.0218 676.001 86.4084 676.001 85.6511C676.001 84.7551 676.321 84.0671 676.961 83.5871C677.612 83.1071 678.529 82.8671 679.713 82.8671H681.009V82.2431C681.009 81.6458 680.865 81.2191 680.577 80.9631C680.289 80.7071 679.847 80.5791 679.249 80.5791C678.631 80.5791 677.873 80.7284 676.977 81.0271L676.609 79.9551C677.655 79.5711 678.625 79.3791 679.521 79.3791C680.513 79.3791 681.255 79.6244 681.745 80.1151C682.236 80.5951 682.481 81.2831 682.481 82.1791V86.0351ZM679.025 87.0911C679.868 87.0911 680.529 86.6538 681.009 85.7791V83.8431H679.905C678.348 83.8431 677.569 84.4191 677.569 85.5711C677.569 86.0724 677.692 86.4511 677.937 86.7071C678.183 86.9631 678.545 87.0911 679.025 87.0911ZM689.76 87.6191C689.206 88.0031 688.576 88.1951 687.872 88.1951C687.158 88.1951 686.598 87.9924 686.192 87.5871C685.798 87.1711 685.6 86.5738 685.6 85.7951V80.7071H684.128V79.5711H685.6V77.6671L687.072 77.4911V79.5711H689.072L688.912 80.7071H687.072V85.7311C687.072 86.1684 687.147 86.4884 687.296 86.6911C687.456 86.8831 687.718 86.9791 688.08 86.9791C688.411 86.9791 688.784 86.8671 689.2 86.6431L689.76 87.6191ZM692.758 79.5711V88.0031H691.286V79.5711H692.758ZM692.006 75.5231C692.315 75.5231 692.566 75.6191 692.758 75.8111C692.95 76.0031 693.046 76.2431 693.046 76.5311C693.046 76.8191 692.95 77.0591 692.758 77.2511C692.566 77.4324 692.315 77.5231 692.006 77.5231C691.707 77.5231 691.462 77.4324 691.27 77.2511C691.078 77.0591 690.982 76.8191 690.982 76.5311C690.982 76.2431 691.078 76.0031 691.27 75.8111C691.462 75.6191 691.707 75.5231 692.006 75.5231ZM698.969 79.3791C700.153 79.3791 701.071 79.7738 701.721 80.5631C702.383 81.3524 702.713 82.4244 702.713 83.7791C702.713 84.6538 702.564 85.4271 702.265 86.0991C701.967 86.7604 701.535 87.2778 700.969 87.6511C700.404 88.0138 699.732 88.1951 698.953 88.1951C697.769 88.1951 696.847 87.8004 696.185 87.0111C695.524 86.2218 695.193 85.1498 695.193 83.7951C695.193 82.9204 695.343 82.1524 695.641 81.4911C695.94 80.8191 696.372 80.3018 696.937 79.9391C697.503 79.5658 698.18 79.3791 698.969 79.3791ZM698.969 80.5631C697.508 80.5631 696.777 81.6404 696.777 83.7951C696.777 85.9391 697.503 87.0111 698.953 87.0111C700.404 87.0111 701.129 85.9338 701.129 83.7791C701.129 81.6351 700.409 80.5631 698.969 80.5631ZM709.113 79.3791C709.881 79.3791 710.478 79.6084 710.905 80.0671C711.342 80.5258 711.561 81.1551 711.561 81.9551V88.0031H710.089V82.1631C710.089 81.5658 709.977 81.1444 709.753 80.8991C709.529 80.6538 709.198 80.5311 708.761 80.5311C708.313 80.5311 707.918 80.6591 707.577 80.9151C707.236 81.1711 706.916 81.5391 706.617 82.0191V88.0031H705.145V79.5711H706.409L706.537 80.8191C706.836 80.3711 707.204 80.0191 707.641 79.7631C708.089 79.5071 708.58 79.3791 709.113 79.3791Z" fill="white"/>
</svg>
