<svg width="1001" height="496" viewBox="0 0 1001 496" fill="none" xmlns="http://www.w3.org/2000/svg">
<g opacity="0.29827">
<path d="M1008.08 164.234L443.182 -354.837V-744.244L28.1096 -767C24.9043 -759.474 4.36709 -737.784 7.57176 -725.694C11.43 -711.235 30.8387 -715.857 36.4776 -706.553C43.0661 -695.59 31.7291 -651.025 28.3457 -638.166C21.8759 -613.809 7.09676 -594.076 2.82235 -569.719C-4.35982 -528.829 10.1824 -532.088 37.7242 -506.546C84.141 -463.464 46.9244 -418.78 58.6176 -368.171C68.1146 -326.924 109.605 -305.65 124.8 -264.405C136.553 -232.64 152.697 -224.523 177.746 -201.291C177.153 -215.396 164.51 -256.997 188.253 -253.323C211.817 -249.708 202.736 -214.982 207.247 -200.461C211.045 -188.372 237.933 -164.194 215.616 -153.052C208.196 -149.378 187.066 -164.016 178.577 -167.927C184.572 -149.259 180.774 -129.882 190.271 -112.044C201.608 -90.7695 213.835 -98.9469 228.853 -87.3909C244.344 -75.4794 242.683 -61.7901 235.797 -43.7747C228.615 -24.9886 221.196 -27.8922 232.592 -5.25421C240.843 11.1015 254.85 31.8431 266.9 44.2878C273.904 51.5176 281.502 53.177 288.506 62.4216C294.323 70.1255 292.067 80.2003 299.012 87.1334C310.883 99.0449 331.006 99.2228 340.384 114.808C350.831 132.171 338.96 145.268 369.706 143.668C371.309 178.395 377.897 209.863 377.541 244.589C394.695 251.404 422.414 243.285 440.399 239.67C458.266 263.73 481.355 247.019 501.774 260.116C510.678 265.805 508.837 280.028 514.239 285.005C525.339 295.198 533.529 288.798 547.301 292.354C557.51 294.961 565.404 302.428 575.138 305.154C584.338 307.703 599.475 301.717 606.301 309.836C614.492 319.555 600.78 337.333 613.127 345.155C623.395 351.674 638.115 336.148 648.088 338.4C659.721 341.066 693.079 371.468 701.271 381.482C710.59 392.919 719.969 414.254 725.25 428.95C733.501 451.943 732.373 463.203 749.408 480.033C760.27 490.76 749.942 491.53 767.63 494.671C779.204 496.745 794.518 488.389 806.212 487.085C830.549 484.419 855.122 489.041 879.102 484.478C901.421 480.211 922.729 473.218 945.64 469.959C965.465 467.114 1000.37 469.307 1017.94 459.885C1036.99 449.751 1038.71 426.817 1011.17 431.084C1008.97 416.447 1018.77 396.238 1007.85 386.105C1023.04 365.364 1028.56 350.727 1030.93 325.363C1032 314.221 1032.48 301.895 1038 292.531C1043.4 283.287 1058.59 277.775 1061.56 269.834C1066.13 257.508 1058.83 251.996 1053.25 245.122C1049.69 240.678 1039.54 242.811 1036.63 238.9C1031.23 231.729 1036.57 224.322 1033.6 217.092C1024.94 196.173 1014.61 187.935 1008.08 164.23C1008.26 168.201 1008.44 172.231 1008.2 176.142" stroke="white" stroke-width="2" stroke-linecap="round" stroke-linejoin="round"/>
</g>
<path d="M732.953 85C724.393 99.3528 744.441 104.389 760.486 113.77C765.241 116.55 765.694 121.142 760.69 123.92C749.928 129.894 709.126 121.204 711.714 129.078C714.387 137.211 748.884 148.59 750.439 149.369C764.092 156.202 768.538 173.539 761.019 183.044C755.668 189.808 794.813 255.752 783.654 253.5C710.579 238.751 844 321 752.654 326.5C723 349.5 851.5 388 851.5 405.5C855.5 468.5 771 392.5 771 435.5L725.5 467" stroke="white" stroke-width="2"/>
<path fill-rule="evenodd" clip-rule="evenodd" d="M725.5 473.969C729.09 473.969 732 471.066 732 467.485C732 463.903 729.09 461 725.5 461C721.91 461 719 463.903 719 467.485C719 471.066 721.91 473.969 725.5 473.969Z" fill="#4AF6CD"/>
<path fill-rule="evenodd" clip-rule="evenodd" d="M366 226.986C367.657 226.986 369 225.646 369 223.993C369 222.34 367.657 221 366 221C364.343 221 363 222.34 363 223.993C363 225.646 364.343 226.986 366 226.986Z" fill="#4AF6CD"/>
<path fill-rule="evenodd" clip-rule="evenodd" d="M657 361.986C658.657 361.986 660 360.646 660 358.993C660 357.34 658.657 356 657 356C655.343 356 654 357.34 654 358.993C654 360.646 655.343 361.986 657 361.986Z" fill="#4AF6CD"/>
<path fill-rule="evenodd" clip-rule="evenodd" d="M572 321.986C573.657 321.986 575 320.646 575 318.993C575 317.34 573.657 316 572 316C570.343 316 569 317.34 569 318.993C569 320.646 570.343 321.986 572 321.986Z" fill="#4AF6CD"/>
<path fill-rule="evenodd" clip-rule="evenodd" d="M729.5 91.958C733.09 91.958 736 89.0548 736 85.4734C736 81.8921 733.09 78.9888 729.5 78.9888C725.91 78.9888 723 81.8921 723 85.4734C723 89.0548 725.91 91.958 729.5 91.958Z" fill="#4AF6CD"/>
<path d="M535.359 472H533.327L528.847 462.64C528.911 463.376 528.959 464.059 528.991 464.688C529.034 465.307 529.055 466.059 529.055 466.944V472H527.631V460.976H529.615L534.143 470.352C534.111 470.075 534.069 469.589 534.015 468.896C533.962 468.203 533.935 467.568 533.935 466.992V460.976H535.359V472ZM541.641 463.376C542.825 463.376 543.742 463.771 544.393 464.56C545.054 465.349 545.385 466.421 545.385 467.776C545.385 468.651 545.236 469.424 544.937 470.096C544.638 470.757 544.206 471.275 543.641 471.648C543.076 472.011 542.404 472.192 541.625 472.192C540.441 472.192 539.518 471.797 538.857 471.008C538.196 470.219 537.865 469.147 537.865 467.792C537.865 466.917 538.014 466.149 538.313 465.488C538.612 464.816 539.044 464.299 539.609 463.936C540.174 463.563 540.852 463.376 541.641 463.376ZM541.641 464.56C540.18 464.56 539.449 465.637 539.449 467.792C539.449 469.936 540.174 471.008 541.625 471.008C543.076 471.008 543.801 469.931 543.801 467.776C543.801 465.632 543.081 464.56 541.641 464.56ZM551.481 463.376C551.78 463.376 552.057 463.408 552.313 463.472L552.041 464.912C551.785 464.848 551.54 464.816 551.305 464.816C550.782 464.816 550.361 465.008 550.041 465.392C549.721 465.776 549.47 466.373 549.289 467.184V472H547.817V463.568H549.081L549.225 465.28C549.449 464.651 549.753 464.176 550.137 463.856C550.521 463.536 550.969 463.376 551.481 463.376ZM558.245 471.616C557.69 472 557.061 472.192 556.357 472.192C555.642 472.192 555.082 471.989 554.677 471.584C554.282 471.168 554.085 470.571 554.085 469.792V464.704H552.613V463.568H554.085V461.664L555.557 461.488V463.568H557.557L557.397 464.704H555.557V469.728C555.557 470.165 555.631 470.485 555.781 470.688C555.941 470.88 556.202 470.976 556.565 470.976C556.895 470.976 557.269 470.864 557.685 470.64L558.245 471.616ZM563.738 463.376C564.506 463.376 565.103 463.605 565.53 464.064C565.967 464.523 566.186 465.152 566.186 465.952V472H564.714V466.16C564.714 465.563 564.597 465.141 564.362 464.896C564.138 464.651 563.807 464.528 563.37 464.528C562.933 464.528 562.543 464.656 562.202 464.912C561.861 465.168 561.541 465.531 561.242 466V472H559.77V460.192L561.242 460.032V464.736C561.903 463.829 562.735 463.376 563.738 463.376ZM576.179 460.784C576.915 460.784 577.545 460.891 578.067 461.104C578.59 461.307 579.097 461.627 579.587 462.064L578.755 462.992C578.339 462.661 577.929 462.421 577.523 462.272C577.129 462.112 576.702 462.032 576.243 462.032C575.667 462.032 575.193 462.165 574.819 462.432C574.446 462.699 574.259 463.088 574.259 463.6C574.259 463.92 574.323 464.192 574.451 464.416C574.579 464.629 574.814 464.827 575.155 465.008C575.507 465.189 576.014 465.381 576.675 465.584C577.369 465.797 577.945 466.027 578.403 466.272C578.862 466.517 579.23 466.859 579.507 467.296C579.795 467.723 579.939 468.267 579.939 468.928C579.939 469.568 579.779 470.133 579.459 470.624C579.15 471.115 578.697 471.499 578.099 471.776C577.513 472.053 576.814 472.192 576.003 472.192C574.478 472.192 573.23 471.717 572.259 470.768L573.091 469.84C573.539 470.203 573.993 470.48 574.451 470.672C574.91 470.853 575.422 470.944 575.987 470.944C576.67 470.944 577.235 470.779 577.683 470.448C578.131 470.107 578.355 469.616 578.355 468.976C578.355 468.613 578.286 468.315 578.147 468.08C578.009 467.835 577.769 467.616 577.427 467.424C577.097 467.232 576.611 467.04 575.971 466.848C574.841 466.507 574.014 466.096 573.491 465.616C572.969 465.136 572.707 464.485 572.707 463.664C572.707 463.109 572.851 462.613 573.139 462.176C573.438 461.739 573.849 461.397 574.371 461.152C574.905 460.907 575.507 460.784 576.179 460.784ZM586.066 463.376C586.834 463.376 587.431 463.605 587.858 464.064C588.295 464.523 588.514 465.152 588.514 465.952V472H587.042V466.16C587.042 465.563 586.925 465.141 586.69 464.896C586.466 464.651 586.135 464.528 585.698 464.528C585.261 464.528 584.871 464.656 584.53 464.912C584.189 465.168 583.869 465.531 583.57 466V472H582.098V460.192L583.57 460.032V464.736C584.231 463.829 585.063 463.376 586.066 463.376ZM594.641 463.376C595.825 463.376 596.742 463.771 597.393 464.56C598.054 465.349 598.385 466.421 598.385 467.776C598.385 468.651 598.236 469.424 597.937 470.096C597.638 470.757 597.206 471.275 596.641 471.648C596.076 472.011 595.404 472.192 594.625 472.192C593.441 472.192 592.518 471.797 591.857 471.008C591.196 470.219 590.865 469.147 590.865 467.792C590.865 466.917 591.014 466.149 591.313 465.488C591.612 464.816 592.044 464.299 592.609 463.936C593.174 463.563 593.852 463.376 594.641 463.376ZM594.641 464.56C593.18 464.56 592.449 465.637 592.449 467.792C592.449 469.936 593.174 471.008 594.625 471.008C596.076 471.008 596.801 469.931 596.801 467.776C596.801 465.632 596.081 464.56 594.641 464.56ZM604.481 463.376C604.78 463.376 605.057 463.408 605.313 463.472L605.041 464.912C604.785 464.848 604.54 464.816 604.305 464.816C603.782 464.816 603.361 465.008 603.041 465.392C602.721 465.776 602.47 466.373 602.289 467.184V472H600.817V463.568H602.081L602.225 465.28C602.449 464.651 602.753 464.176 603.137 463.856C603.521 463.536 603.969 463.376 604.481 463.376ZM612.872 467.536C612.872 467.781 612.862 468.032 612.84 468.288H607.464C607.528 469.216 607.763 469.899 608.168 470.336C608.574 470.773 609.096 470.992 609.736 470.992C610.142 470.992 610.515 470.933 610.856 470.816C611.198 470.699 611.555 470.512 611.928 470.256L612.568 471.136C611.672 471.84 610.691 472.192 609.624 472.192C608.451 472.192 607.534 471.808 606.872 471.04C606.222 470.272 605.896 469.216 605.896 467.872C605.896 466.997 606.035 466.224 606.312 465.552C606.6 464.869 607.006 464.336 607.528 463.952C608.062 463.568 608.686 463.376 609.4 463.376C610.52 463.376 611.379 463.744 611.976 464.48C612.574 465.216 612.872 466.235 612.872 467.536ZM611.416 467.104C611.416 466.272 611.251 465.637 610.92 465.2C610.59 464.763 610.094 464.544 609.432 464.544C608.227 464.544 607.571 465.429 607.464 467.2H611.416V467.104ZM621.41 459.184V473.568H621.058V459.184H621.41ZM640.237 472H638.765L638.381 467.024C638.221 465.072 638.131 463.573 638.109 462.528L635.725 470.752H634.301L631.789 462.512C631.789 463.845 631.72 465.387 631.581 467.136L631.213 472H629.773L630.685 460.976H632.733L635.053 468.992L637.261 460.976H639.325L640.237 472ZM648.434 470.032C648.434 470.373 648.493 470.629 648.61 470.8C648.728 470.96 648.904 471.083 649.138 471.168L648.802 472.192C648.365 472.139 648.013 472.016 647.746 471.824C647.48 471.632 647.282 471.333 647.154 470.928C646.589 471.771 645.752 472.192 644.642 472.192C643.81 472.192 643.154 471.957 642.674 471.488C642.194 471.019 641.954 470.405 641.954 469.648C641.954 468.752 642.274 468.064 642.914 467.584C643.565 467.104 644.482 466.864 645.666 466.864H646.962V466.24C646.962 465.643 646.818 465.216 646.53 464.96C646.242 464.704 645.8 464.576 645.202 464.576C644.584 464.576 643.826 464.725 642.93 465.024L642.562 463.952C643.608 463.568 644.578 463.376 645.474 463.376C646.466 463.376 647.208 463.621 647.698 464.112C648.189 464.592 648.434 465.28 648.434 466.176V470.032ZM644.978 471.088C645.821 471.088 646.482 470.651 646.962 469.776V467.84H645.858C644.301 467.84 643.522 468.416 643.522 469.568C643.522 470.069 643.645 470.448 643.89 470.704C644.136 470.96 644.498 471.088 644.978 471.088ZM652.981 472.192C652.437 472.192 652.005 472.032 651.685 471.712C651.376 471.381 651.221 470.923 651.221 470.336V460.176L652.693 460V470.304C652.693 470.539 652.731 470.709 652.805 470.816C652.891 470.923 653.029 470.976 653.221 470.976C653.424 470.976 653.605 470.944 653.765 470.88L654.149 471.904C653.797 472.096 653.408 472.192 652.981 472.192ZM657.461 463.568V472H655.989V463.568H657.461ZM656.709 459.52C657.018 459.52 657.269 459.616 657.461 459.808C657.653 460 657.749 460.24 657.749 460.528C657.749 460.816 657.653 461.056 657.461 461.248C657.269 461.429 657.018 461.52 656.709 461.52C656.41 461.52 656.165 461.429 655.973 461.248C655.781 461.056 655.685 460.816 655.685 460.528C655.685 460.24 655.781 460 655.973 459.808C656.165 459.616 656.41 459.52 656.709 459.52ZM664.36 463.376C665.32 463.376 666.083 463.765 666.648 464.544C667.214 465.312 667.496 466.389 667.496 467.776C667.496 468.651 667.363 469.424 667.096 470.096C666.83 470.757 666.446 471.275 665.944 471.648C665.443 472.011 664.856 472.192 664.184 472.192C663.299 472.192 662.552 471.819 661.944 471.072L661.8 472H660.504V460.176L661.976 460V464.624C662.584 463.792 663.379 463.376 664.36 463.376ZM663.832 471.024C664.483 471.024 664.99 470.763 665.352 470.24C665.726 469.707 665.912 468.885 665.912 467.776C665.912 466.635 665.742 465.813 665.4 465.312C665.059 464.8 664.574 464.544 663.944 464.544C663.198 464.544 662.542 464.981 661.976 465.856V469.888C662.2 470.24 662.472 470.517 662.792 470.72C663.123 470.923 663.47 471.024 663.832 471.024ZM676.276 472H675.012L674.9 470.688C674.58 471.211 674.212 471.595 673.796 471.84C673.38 472.075 672.874 472.192 672.276 472.192C671.54 472.192 670.964 471.968 670.548 471.52C670.132 471.072 669.924 470.437 669.924 469.616V463.568H671.396V469.456C671.396 470.032 671.498 470.443 671.7 470.688C671.903 470.923 672.234 471.04 672.692 471.04C673.514 471.04 674.218 470.555 674.804 469.584V463.568H676.276V472ZM679.701 469.968C680.021 469.968 680.288 470.075 680.501 470.288C680.714 470.501 680.821 470.763 680.821 471.072C680.821 471.403 680.725 471.781 680.533 472.208L679.461 474.656H678.405L679.045 472C678.906 471.893 678.794 471.76 678.709 471.6C678.634 471.44 678.597 471.264 678.597 471.072C678.597 470.763 678.704 470.501 678.917 470.288C679.13 470.075 679.392 469.968 679.701 469.968ZM691.331 460.784C691.992 460.784 692.547 460.869 692.995 461.04C693.454 461.211 693.918 461.488 694.387 461.872L693.555 462.848C692.883 462.304 692.174 462.032 691.427 462.032C690.51 462.032 689.768 462.384 689.203 463.088C688.648 463.792 688.371 464.923 688.371 466.48C688.371 467.995 688.648 469.115 689.203 469.84C689.758 470.555 690.494 470.912 691.411 470.912C691.88 470.912 692.291 470.832 692.643 470.672C692.995 470.512 693.368 470.288 693.763 470L694.515 470.96C694.174 471.312 693.736 471.605 693.203 471.84C692.67 472.075 692.056 472.192 691.363 472.192C690.467 472.192 689.667 471.973 688.963 471.536C688.27 471.088 687.726 470.437 687.331 469.584C686.947 468.72 686.755 467.685 686.755 466.48C686.755 465.275 686.958 464.245 687.363 463.392C687.768 462.528 688.318 461.877 689.011 461.44C689.704 461.003 690.478 460.784 691.331 460.784ZM702.3 472L701.468 469.232H697.292L696.46 472H694.924L698.46 460.976H700.38L703.9 472H702.3ZM697.66 468H701.1L699.388 462.24L697.66 468Z" fill="white"/>
<path d="M598.378 76.7871C599.039 76.7871 599.594 76.8724 600.042 77.0431C600.501 77.2138 600.965 77.4911 601.434 77.8751L600.602 78.8511C599.93 78.3071 599.221 78.0351 598.474 78.0351C597.557 78.0351 596.815 78.3871 596.25 79.0911C595.695 79.7951 595.418 80.9258 595.418 82.4831C595.418 83.9978 595.695 85.1178 596.25 85.8431C596.805 86.5578 597.541 86.9151 598.458 86.9151C598.927 86.9151 599.338 86.8351 599.69 86.6751C600.042 86.5151 600.415 86.2911 600.81 86.0031L601.562 86.9631C601.221 87.3151 600.783 87.6084 600.25 87.8431C599.717 88.0778 599.103 88.1951 598.41 88.1951C597.514 88.1951 596.714 87.9764 596.01 87.5391C595.317 87.0911 594.773 86.4404 594.378 85.5871C593.994 84.7231 593.802 83.6884 593.802 82.4831C593.802 81.2778 594.005 80.2484 594.41 79.3951C594.815 78.5311 595.365 77.8804 596.058 77.4431C596.751 77.0058 597.525 76.7871 598.378 76.7871ZM609.401 88.0031H608.137L608.025 86.6911C607.705 87.2138 607.337 87.5978 606.921 87.8431C606.505 88.0778 605.999 88.1951 605.401 88.1951C604.665 88.1951 604.089 87.9711 603.673 87.5231C603.257 87.0751 603.049 86.4404 603.049 85.6191V79.5711H604.521V85.4591C604.521 86.0351 604.623 86.4458 604.825 86.6911C605.028 86.9258 605.359 87.0431 605.817 87.0431C606.639 87.0431 607.343 86.5578 607.929 85.5871V79.5711H609.401V88.0031ZM616.106 79.3791C616.405 79.3791 616.682 79.4111 616.938 79.4751L616.666 80.9151C616.41 80.8511 616.165 80.8191 615.93 80.8191C615.407 80.8191 614.986 81.0111 614.666 81.3951C614.346 81.7791 614.095 82.3764 613.914 83.1871V88.0031H612.442V79.5711H613.706L613.85 81.2831C614.074 80.6538 614.378 80.1791 614.762 79.8591C615.146 79.5391 615.594 79.3791 616.106 79.3791ZM622.278 79.3791C622.576 79.3791 622.854 79.4111 623.11 79.4751L622.838 80.9151C622.582 80.8511 622.336 80.8191 622.102 80.8191C621.579 80.8191 621.158 81.0111 620.838 81.3951C620.518 81.7791 620.267 82.3764 620.086 83.1871V88.0031H618.614V79.5711H619.878L620.022 81.2831C620.246 80.6538 620.55 80.1791 620.934 79.8591C621.318 79.5391 621.766 79.3791 622.278 79.3791ZM630.669 83.5391C630.669 83.7844 630.659 84.0351 630.637 84.2911H625.261C625.325 85.2191 625.56 85.9018 625.965 86.3391C626.371 86.7764 626.893 86.9951 627.533 86.9951C627.939 86.9951 628.312 86.9364 628.653 86.8191C628.995 86.7018 629.352 86.5151 629.725 86.2591L630.365 87.1391C629.469 87.8431 628.488 88.1951 627.421 88.1951C626.248 88.1951 625.331 87.8111 624.669 87.0431C624.019 86.2751 623.693 85.2191 623.693 83.8751C623.693 83.0004 623.832 82.2271 624.109 81.5551C624.397 80.8724 624.803 80.3391 625.325 79.9551C625.859 79.5711 626.483 79.3791 627.197 79.3791C628.317 79.3791 629.176 79.7471 629.773 80.4831C630.371 81.2191 630.669 82.2378 630.669 83.5391ZM629.213 83.1071C629.213 82.2751 629.048 81.6404 628.717 81.2031C628.387 80.7658 627.891 80.5471 627.229 80.5471C626.024 80.5471 625.368 81.4324 625.261 83.2031H629.213V83.1071ZM636.988 79.3791C637.756 79.3791 638.353 79.6084 638.78 80.0671C639.217 80.5258 639.436 81.1551 639.436 81.9551V88.0031H637.964V82.1631C637.964 81.5658 637.852 81.1444 637.628 80.8991C637.404 80.6538 637.073 80.5311 636.636 80.5311C636.188 80.5311 635.793 80.6591 635.452 80.9151C635.111 81.1711 634.791 81.5391 634.492 82.0191V88.0031H633.02V79.5711H634.284L634.412 80.8191C634.711 80.3711 635.079 80.0191 635.516 79.7631C635.964 79.5071 636.455 79.3791 636.988 79.3791ZM646.651 87.6191C646.096 88.0031 645.467 88.1951 644.763 88.1951C644.048 88.1951 643.488 87.9924 643.083 87.5871C642.688 87.1711 642.491 86.5738 642.491 85.7951V80.7071H641.019V79.5711H642.491V77.6671L643.963 77.4911V79.5711H645.963L645.803 80.7071H643.963V85.7311C643.963 86.1684 644.038 86.4884 644.187 86.6911C644.347 86.8831 644.608 86.9791 644.971 86.9791C645.302 86.9791 645.675 86.8671 646.091 86.6431L646.651 87.6191ZM654.011 76.9791V86.6751H658.539L658.363 88.0031H652.491V76.9791H654.011ZM663.141 79.3791C664.325 79.3791 665.242 79.7738 665.893 80.5631C666.554 81.3524 666.885 82.4244 666.885 83.7791C666.885 84.6538 666.736 85.4271 666.437 86.0991C666.138 86.7604 665.706 87.2778 665.141 87.6511C664.576 88.0138 663.904 88.1951 663.125 88.1951C661.941 88.1951 661.018 87.8004 660.357 87.0111C659.696 86.2218 659.365 85.1498 659.365 83.7951C659.365 82.9204 659.514 82.1524 659.813 81.4911C660.112 80.8191 660.544 80.3018 661.109 79.9391C661.674 79.5658 662.352 79.3791 663.141 79.3791ZM663.141 80.5631C661.68 80.5631 660.949 81.6404 660.949 83.7951C660.949 85.9391 661.674 87.0111 663.125 87.0111C664.576 87.0111 665.301 85.9338 665.301 83.7791C665.301 81.6351 664.581 80.5631 663.141 80.5631ZM672.389 79.3791C672.89 79.3791 673.349 79.4538 673.765 79.6031C674.181 79.7418 674.581 79.9711 674.965 80.2911L674.261 81.2191C673.962 81.0058 673.669 80.8511 673.381 80.7551C673.104 80.6484 672.794 80.5951 672.453 80.5951C671.77 80.5951 671.237 80.8671 670.853 81.4111C670.48 81.9551 670.293 82.7604 670.293 83.8271C670.293 84.8938 670.48 85.6831 670.853 86.1951C671.226 86.6964 671.76 86.9471 672.453 86.9471C672.784 86.9471 673.088 86.8991 673.365 86.8031C673.642 86.6964 673.952 86.5311 674.293 86.3071L674.965 87.2671C674.197 87.8858 673.338 88.1951 672.389 88.1951C671.248 88.1951 670.346 87.8111 669.685 87.0431C669.034 86.2751 668.709 85.2138 668.709 83.8591C668.709 82.9631 668.858 82.1791 669.157 81.5071C669.456 80.8351 669.877 80.3124 670.421 79.9391C670.976 79.5658 671.632 79.3791 672.389 79.3791ZM682.481 86.0351C682.481 86.3764 682.54 86.6324 682.657 86.8031C682.775 86.9631 682.951 87.0858 683.185 87.1711L682.849 88.1951C682.412 88.1418 682.06 88.0191 681.793 87.8271C681.527 87.6351 681.329 87.3364 681.201 86.9311C680.636 87.7738 679.799 88.1951 678.689 88.1951C677.857 88.1951 677.201 87.9604 676.721 87.4911C676.241 87.0218 676.001 86.4084 676.001 85.6511C676.001 84.7551 676.321 84.0671 676.961 83.5871C677.612 83.1071 678.529 82.8671 679.713 82.8671H681.009V82.2431C681.009 81.6458 680.865 81.2191 680.577 80.9631C680.289 80.7071 679.847 80.5791 679.249 80.5791C678.631 80.5791 677.873 80.7284 676.977 81.0271L676.609 79.9551C677.655 79.5711 678.625 79.3791 679.521 79.3791C680.513 79.3791 681.255 79.6244 681.745 80.1151C682.236 80.5951 682.481 81.2831 682.481 82.1791V86.0351ZM679.025 87.0911C679.868 87.0911 680.529 86.6538 681.009 85.7791V83.8431H679.905C678.348 83.8431 677.569 84.4191 677.569 85.5711C677.569 86.0724 677.692 86.4511 677.937 86.7071C678.183 86.9631 678.545 87.0911 679.025 87.0911ZM689.76 87.6191C689.206 88.0031 688.576 88.1951 687.872 88.1951C687.158 88.1951 686.598 87.9924 686.192 87.5871C685.798 87.1711 685.6 86.5738 685.6 85.7951V80.7071H684.128V79.5711H685.6V77.6671L687.072 77.4911V79.5711H689.072L688.912 80.7071H687.072V85.7311C687.072 86.1684 687.147 86.4884 687.296 86.6911C687.456 86.8831 687.718 86.9791 688.08 86.9791C688.411 86.9791 688.784 86.8671 689.2 86.6431L689.76 87.6191ZM692.758 79.5711V88.0031H691.286V79.5711H692.758ZM692.006 75.5231C692.315 75.5231 692.566 75.6191 692.758 75.8111C692.95 76.0031 693.046 76.2431 693.046 76.5311C693.046 76.8191 692.95 77.0591 692.758 77.2511C692.566 77.4324 692.315 77.5231 692.006 77.5231C691.707 77.5231 691.462 77.4324 691.27 77.2511C691.078 77.0591 690.982 76.8191 690.982 76.5311C690.982 76.2431 691.078 76.0031 691.27 75.8111C691.462 75.6191 691.707 75.5231 692.006 75.5231ZM698.969 79.3791C700.153 79.3791 701.071 79.7738 701.721 80.5631C702.383 81.3524 702.713 82.4244 702.713 83.7791C702.713 84.6538 702.564 85.4271 702.265 86.0991C701.967 86.7604 701.535 87.2778 700.969 87.6511C700.404 88.0138 699.732 88.1951 698.953 88.1951C697.769 88.1951 696.847 87.8004 696.185 87.0111C695.524 86.2218 695.193 85.1498 695.193 83.7951C695.193 82.9204 695.343 82.1524 695.641 81.4911C695.94 80.8191 696.372 80.3018 696.937 79.9391C697.503 79.5658 698.18 79.3791 698.969 79.3791ZM698.969 80.5631C697.508 80.5631 696.777 81.6404 696.777 83.7951C696.777 85.9391 697.503 87.0111 698.953 87.0111C700.404 87.0111 701.129 85.9338 701.129 83.7791C701.129 81.6351 700.409 80.5631 698.969 80.5631ZM709.113 79.3791C709.881 79.3791 710.478 79.6084 710.905 80.0671C711.342 80.5258 711.561 81.1551 711.561 81.9551V88.0031H710.089V82.1631C710.089 81.5658 709.977 81.1444 709.753 80.8991C709.529 80.6538 709.198 80.5311 708.761 80.5311C708.313 80.5311 707.918 80.6591 707.577 80.9151C707.236 81.1711 706.916 81.5391 706.617 82.0191V88.0031H705.145V79.5711H706.409L706.537 80.8191C706.836 80.3711 707.204 80.0191 707.641 79.7631C708.089 79.5071 708.58 79.3791 709.113 79.3791Z" fill="white"/>
</svg>
