<svg width="1001" height="496" viewBox="0 0 1001 496" fill="none" xmlns="http://www.w3.org/2000/svg">
<g opacity="0.29827">
<path d="M1008.08 164.234L443.182 -354.837V-744.244L28.1096 -767C24.9043 -759.474 4.36709 -737.784 7.57176 -725.694C11.43 -711.235 30.8387 -715.857 36.4776 -706.553C43.0661 -695.59 31.7291 -651.025 28.3457 -638.166C21.8759 -613.809 7.09676 -594.076 2.82235 -569.719C-4.35982 -528.829 10.1824 -532.088 37.7242 -506.546C84.141 -463.464 46.9244 -418.78 58.6176 -368.171C68.1146 -326.924 109.605 -305.65 124.8 -264.405C136.553 -232.64 152.697 -224.523 177.746 -201.291C177.153 -215.396 164.51 -256.997 188.253 -253.323C211.817 -249.708 202.736 -214.982 207.247 -200.461C211.045 -188.372 237.933 -164.194 215.616 -153.052C208.196 -149.378 187.066 -164.016 178.577 -167.927C184.572 -149.259 180.774 -129.882 190.271 -112.044C201.608 -90.7695 213.835 -98.9469 228.853 -87.3909C244.344 -75.4794 242.683 -61.7901 235.797 -43.7747C228.615 -24.9886 221.196 -27.8922 232.592 -5.25421C240.843 11.1015 254.85 31.8431 266.9 44.2878C273.904 51.5176 281.502 53.177 288.506 62.4216C294.323 70.1255 292.067 80.2003 299.012 87.1334C310.883 99.0449 331.006 99.2228 340.384 114.808C350.831 132.171 338.96 145.268 369.706 143.668C371.309 178.395 377.897 209.863 377.541 244.589C394.695 251.404 422.414 243.285 440.399 239.67C458.266 263.73 481.355 247.019 501.774 260.116C510.678 265.805 508.837 280.028 514.239 285.005C525.339 295.198 533.529 288.798 547.301 292.354C557.51 294.961 565.404 302.428 575.138 305.154C584.338 307.703 599.475 301.717 606.301 309.836C614.492 319.555 600.78 337.333 613.127 345.155C623.395 351.674 638.115 336.148 648.088 338.4C659.721 341.066 693.079 371.468 701.271 381.482C710.59 392.919 719.969 414.254 725.25 428.95C733.501 451.943 732.373 463.203 749.408 480.033C760.27 490.76 749.942 491.53 767.63 494.671C779.204 496.745 794.518 488.389 806.212 487.085C830.549 484.419 855.122 489.041 879.102 484.478C901.421 480.211 922.729 473.218 945.64 469.959C965.465 467.114 1000.37 469.307 1017.94 459.885C1036.99 449.751 1038.71 426.817 1011.17 431.084C1008.97 416.447 1018.77 396.238 1007.85 386.105C1023.04 365.364 1028.56 350.727 1030.93 325.363C1032 314.221 1032.48 301.895 1038 292.531C1043.4 283.287 1058.59 277.775 1061.56 269.834C1066.13 257.508 1058.83 251.996 1053.25 245.122C1049.69 240.678 1039.54 242.811 1036.63 238.9C1031.23 231.729 1036.57 224.322 1033.6 217.092C1024.94 196.173 1014.61 187.935 1008.08 164.23C1008.26 168.201 1008.44 172.231 1008.2 176.142" stroke="white" stroke-width="2" stroke-linecap="round" stroke-linejoin="round"/>
</g>
<path d="M732.953 85C724.393 99.3528 744.441 104.389 760.486 113.77C765.24 116.55 765.694 121.142 760.69 123.92C749.928 129.894 709.126 121.204 711.714 129.078C714.387 137.211 748.883 148.59 750.439 149.369C764.092 156.202 768.538 173.539 761.019 183.044C755.668 189.808 794.813 255.752 783.654 253.5C710.579 238.751 834.74 331.08 752.654 326.5C746.37 326.149 661.689 301.368 655.654 302.5C649.438 303.666 639.654 320.5 641.154 326.5L655.654 356.5" stroke="white" stroke-width="2"/>
<path fill-rule="evenodd" clip-rule="evenodd" d="M656.5 366.969C660.09 366.969 663 364.066 663 360.485C663 356.903 660.09 354 656.5 354C652.91 354 650 356.903 650 360.485C650 364.066 652.91 366.969 656.5 366.969Z" fill="#4AF6CD"/>
<path fill-rule="evenodd" clip-rule="evenodd" d="M366 226.986C367.657 226.986 369 225.646 369 223.993C369 222.34 367.657 221 366 221C364.343 221 363 222.34 363 223.993C363 225.646 364.343 226.986 366 226.986Z" fill="#4AF6CD"/>
<path fill-rule="evenodd" clip-rule="evenodd" d="M725 471.057C726.657 471.057 728 469.717 728 468.064C728 466.411 726.657 465.071 725 465.071C723.343 465.071 722 466.411 722 468.064C722 469.717 723.343 471.057 725 471.057Z" fill="#4AF6CD"/>
<path fill-rule="evenodd" clip-rule="evenodd" d="M572 321.986C573.657 321.986 575 320.646 575 318.993C575 317.34 573.657 316 572 316C570.343 316 569 317.34 569 318.993C569 320.646 570.343 321.986 572 321.986Z" fill="#4AF6CD"/>
<path fill-rule="evenodd" clip-rule="evenodd" d="M729.5 91.958C733.09 91.958 736 89.0548 736 85.4734C736 81.8921 733.09 78.9888 729.5 78.9888C725.91 78.9888 723 81.8921 723 85.4734C723 89.0548 725.91 91.958 729.5 91.958Z" fill="#4AF6CD"/>
<path d="M460.414 354.784C461.15 354.784 461.779 354.891 462.302 355.104C462.824 355.307 463.331 355.627 463.822 356.064L462.99 356.992C462.574 356.661 462.163 356.421 461.758 356.272C461.363 356.112 460.936 356.032 460.478 356.032C459.902 356.032 459.427 356.165 459.054 356.432C458.68 356.699 458.494 357.088 458.494 357.6C458.494 357.92 458.558 358.192 458.686 358.416C458.814 358.629 459.048 358.827 459.39 359.008C459.742 359.189 460.248 359.381 460.91 359.584C461.603 359.797 462.179 360.027 462.638 360.272C463.096 360.517 463.464 360.859 463.742 361.296C464.03 361.723 464.174 362.267 464.174 362.928C464.174 363.568 464.014 364.133 463.694 364.624C463.384 365.115 462.931 365.499 462.334 365.776C461.747 366.053 461.048 366.192 460.238 366.192C458.712 366.192 457.464 365.717 456.494 364.768L457.326 363.84C457.774 364.203 458.227 364.48 458.686 364.672C459.144 364.853 459.656 364.944 460.222 364.944C460.904 364.944 461.47 364.779 461.918 364.448C462.366 364.107 462.59 363.616 462.59 362.976C462.59 362.613 462.52 362.315 462.382 362.08C462.243 361.835 462.003 361.616 461.662 361.424C461.331 361.232 460.846 361.04 460.206 360.848C459.075 360.507 458.248 360.096 457.726 359.616C457.203 359.136 456.942 358.485 456.942 357.664C456.942 357.109 457.086 356.613 457.374 356.176C457.672 355.739 458.083 355.397 458.606 355.152C459.139 354.907 459.742 354.784 460.414 354.784ZM469.501 357.376C470.685 357.376 471.602 357.771 472.253 358.56C472.914 359.349 473.245 360.421 473.245 361.776C473.245 362.651 473.095 363.424 472.797 364.096C472.498 364.757 472.066 365.275 471.501 365.648C470.935 366.011 470.263 366.192 469.485 366.192C468.301 366.192 467.378 365.797 466.717 365.008C466.055 364.219 465.725 363.147 465.725 361.792C465.725 360.917 465.874 360.149 466.173 359.488C466.471 358.816 466.903 358.299 467.469 357.936C468.034 357.563 468.711 357.376 469.501 357.376ZM469.501 358.56C468.039 358.56 467.309 359.637 467.309 361.792C467.309 363.936 468.034 365.008 469.485 365.008C470.935 365.008 471.661 363.931 471.661 361.776C471.661 359.632 470.941 358.56 469.501 358.56ZM481.948 366H480.684L480.572 364.688C480.252 365.211 479.884 365.595 479.468 365.84C479.052 366.075 478.546 366.192 477.948 366.192C477.212 366.192 476.636 365.968 476.22 365.52C475.804 365.072 475.596 364.437 475.596 363.616V357.568H477.068V363.456C477.068 364.032 477.17 364.443 477.372 364.688C477.575 364.923 477.906 365.04 478.364 365.04C479.186 365.04 479.89 364.555 480.476 363.584V357.568H481.948V366ZM489.245 365.616C488.69 366 488.061 366.192 487.357 366.192C486.642 366.192 486.082 365.989 485.677 365.584C485.282 365.168 485.085 364.571 485.085 363.792V358.704H483.613V357.568H485.085V355.664L486.557 355.488V357.568H488.557L488.397 358.704H486.557V363.728C486.557 364.165 486.631 364.485 486.781 364.688C486.941 364.88 487.202 364.976 487.565 364.976C487.895 364.976 488.269 364.864 488.685 364.64L489.245 365.616ZM494.738 357.376C495.506 357.376 496.103 357.605 496.53 358.064C496.967 358.523 497.186 359.152 497.186 359.952V366H495.714V360.16C495.714 359.563 495.597 359.141 495.362 358.896C495.138 358.651 494.807 358.528 494.37 358.528C493.933 358.528 493.543 358.656 493.202 358.912C492.861 359.168 492.541 359.531 492.242 360V366H490.77V354.192L492.242 354.032V358.736C492.903 357.829 493.735 357.376 494.738 357.376ZM507.179 354.784C507.915 354.784 508.545 354.891 509.067 355.104C509.59 355.307 510.097 355.627 510.587 356.064L509.755 356.992C509.339 356.661 508.929 356.421 508.523 356.272C508.129 356.112 507.702 356.032 507.243 356.032C506.667 356.032 506.193 356.165 505.819 356.432C505.446 356.699 505.259 357.088 505.259 357.6C505.259 357.92 505.323 358.192 505.451 358.416C505.579 358.629 505.814 358.827 506.155 359.008C506.507 359.189 507.014 359.381 507.675 359.584C508.369 359.797 508.945 360.027 509.403 360.272C509.862 360.517 510.23 360.859 510.507 361.296C510.795 361.723 510.939 362.267 510.939 362.928C510.939 363.568 510.779 364.133 510.459 364.624C510.15 365.115 509.697 365.499 509.099 365.776C508.513 366.053 507.814 366.192 507.003 366.192C505.478 366.192 504.23 365.717 503.259 364.768L504.091 363.84C504.539 364.203 504.993 364.48 505.451 364.672C505.91 364.853 506.422 364.944 506.987 364.944C507.67 364.944 508.235 364.779 508.683 364.448C509.131 364.107 509.355 363.616 509.355 362.976C509.355 362.613 509.286 362.315 509.147 362.08C509.009 361.835 508.769 361.616 508.427 361.424C508.097 361.232 507.611 361.04 506.971 360.848C505.841 360.507 505.014 360.096 504.491 359.616C503.969 359.136 503.707 358.485 503.707 357.664C503.707 357.109 503.851 356.613 504.139 356.176C504.438 355.739 504.849 355.397 505.371 355.152C505.905 354.907 506.507 354.784 507.179 354.784ZM517.066 357.376C517.834 357.376 518.431 357.605 518.858 358.064C519.295 358.523 519.514 359.152 519.514 359.952V366H518.042V360.16C518.042 359.563 517.925 359.141 517.69 358.896C517.466 358.651 517.135 358.528 516.698 358.528C516.261 358.528 515.871 358.656 515.53 358.912C515.189 359.168 514.869 359.531 514.57 360V366H513.098V354.192L514.57 354.032V358.736C515.231 357.829 516.063 357.376 517.066 357.376ZM525.641 357.376C526.825 357.376 527.742 357.771 528.393 358.56C529.054 359.349 529.385 360.421 529.385 361.776C529.385 362.651 529.236 363.424 528.937 364.096C528.638 364.757 528.206 365.275 527.641 365.648C527.076 366.011 526.404 366.192 525.625 366.192C524.441 366.192 523.518 365.797 522.857 365.008C522.196 364.219 521.865 363.147 521.865 361.792C521.865 360.917 522.014 360.149 522.313 359.488C522.612 358.816 523.044 358.299 523.609 357.936C524.174 357.563 524.852 357.376 525.641 357.376ZM525.641 358.56C524.18 358.56 523.449 359.637 523.449 361.792C523.449 363.936 524.174 365.008 525.625 365.008C527.076 365.008 527.801 363.931 527.801 361.776C527.801 359.632 527.081 358.56 525.641 358.56ZM535.481 357.376C535.78 357.376 536.057 357.408 536.313 357.472L536.041 358.912C535.785 358.848 535.54 358.816 535.305 358.816C534.782 358.816 534.361 359.008 534.041 359.392C533.721 359.776 533.47 360.373 533.289 361.184V366H531.817V357.568H533.081L533.225 359.28C533.449 358.651 533.753 358.176 534.137 357.856C534.521 357.536 534.969 357.376 535.481 357.376ZM543.872 361.536C543.872 361.781 543.862 362.032 543.84 362.288H538.464C538.528 363.216 538.763 363.899 539.168 364.336C539.574 364.773 540.096 364.992 540.736 364.992C541.142 364.992 541.515 364.933 541.856 364.816C542.198 364.699 542.555 364.512 542.928 364.256L543.568 365.136C542.672 365.84 541.691 366.192 540.624 366.192C539.451 366.192 538.534 365.808 537.872 365.04C537.222 364.272 536.896 363.216 536.896 361.872C536.896 360.997 537.035 360.224 537.312 359.552C537.6 358.869 538.006 358.336 538.528 357.952C539.062 357.568 539.686 357.376 540.4 357.376C541.52 357.376 542.379 357.744 542.976 358.48C543.574 359.216 543.872 360.235 543.872 361.536ZM542.416 361.104C542.416 360.272 542.251 359.637 541.92 359.2C541.59 358.763 541.094 358.544 540.432 358.544C539.227 358.544 538.571 359.429 538.464 361.2H542.416V361.104ZM552.41 353.184V367.568H552.058V353.184H552.41ZM571.237 366H569.765L569.381 361.024C569.221 359.072 569.131 357.573 569.109 356.528L566.725 364.752H565.301L562.789 356.512C562.789 357.845 562.72 359.387 562.581 361.136L562.213 366H560.773L561.685 354.976H563.733L566.053 362.992L568.261 354.976H570.325L571.237 366ZM579.434 364.032C579.434 364.373 579.493 364.629 579.61 364.8C579.728 364.96 579.904 365.083 580.138 365.168L579.802 366.192C579.365 366.139 579.013 366.016 578.746 365.824C578.48 365.632 578.282 365.333 578.154 364.928C577.589 365.771 576.752 366.192 575.642 366.192C574.81 366.192 574.154 365.957 573.674 365.488C573.194 365.019 572.954 364.405 572.954 363.648C572.954 362.752 573.274 362.064 573.914 361.584C574.565 361.104 575.482 360.864 576.666 360.864H577.962V360.24C577.962 359.643 577.818 359.216 577.53 358.96C577.242 358.704 576.8 358.576 576.202 358.576C575.584 358.576 574.826 358.725 573.93 359.024L573.562 357.952C574.608 357.568 575.578 357.376 576.474 357.376C577.466 357.376 578.208 357.621 578.698 358.112C579.189 358.592 579.434 359.28 579.434 360.176V364.032ZM575.978 365.088C576.821 365.088 577.482 364.651 577.962 363.776V361.84H576.858C575.301 361.84 574.522 362.416 574.522 363.568C574.522 364.069 574.645 364.448 574.89 364.704C575.136 364.96 575.498 365.088 575.978 365.088ZM583.981 366.192C583.437 366.192 583.005 366.032 582.685 365.712C582.376 365.381 582.221 364.923 582.221 364.336V354.176L583.693 354V364.304C583.693 364.539 583.731 364.709 583.805 364.816C583.891 364.923 584.029 364.976 584.221 364.976C584.424 364.976 584.605 364.944 584.765 364.88L585.149 365.904C584.797 366.096 584.408 366.192 583.981 366.192ZM588.461 357.568V366H586.989V357.568H588.461ZM587.709 353.52C588.018 353.52 588.269 353.616 588.461 353.808C588.653 354 588.749 354.24 588.749 354.528C588.749 354.816 588.653 355.056 588.461 355.248C588.269 355.429 588.018 355.52 587.709 355.52C587.41 355.52 587.165 355.429 586.973 355.248C586.781 355.056 586.685 354.816 586.685 354.528C586.685 354.24 586.781 354 586.973 353.808C587.165 353.616 587.41 353.52 587.709 353.52ZM595.36 357.376C596.32 357.376 597.083 357.765 597.648 358.544C598.214 359.312 598.496 360.389 598.496 361.776C598.496 362.651 598.363 363.424 598.096 364.096C597.83 364.757 597.446 365.275 596.944 365.648C596.443 366.011 595.856 366.192 595.184 366.192C594.299 366.192 593.552 365.819 592.944 365.072L592.8 366H591.504V354.176L592.976 354V358.624C593.584 357.792 594.379 357.376 595.36 357.376ZM594.832 365.024C595.483 365.024 595.99 364.763 596.352 364.24C596.726 363.707 596.912 362.885 596.912 361.776C596.912 360.635 596.742 359.813 596.4 359.312C596.059 358.8 595.574 358.544 594.944 358.544C594.198 358.544 593.542 358.981 592.976 359.856V363.888C593.2 364.24 593.472 364.517 593.792 364.72C594.123 364.923 594.47 365.024 594.832 365.024ZM607.276 366H606.012L605.9 364.688C605.58 365.211 605.212 365.595 604.796 365.84C604.38 366.075 603.874 366.192 603.276 366.192C602.54 366.192 601.964 365.968 601.548 365.52C601.132 365.072 600.924 364.437 600.924 363.616V357.568H602.396V363.456C602.396 364.032 602.498 364.443 602.7 364.688C602.903 364.923 603.234 365.04 603.692 365.04C604.514 365.04 605.218 364.555 605.804 363.584V357.568H607.276V366ZM610.701 363.968C611.021 363.968 611.288 364.075 611.501 364.288C611.714 364.501 611.821 364.763 611.821 365.072C611.821 365.403 611.725 365.781 611.533 366.208L610.461 368.656H609.405L610.045 366C609.906 365.893 609.794 365.76 609.709 365.6C609.634 365.44 609.597 365.264 609.597 365.072C609.597 364.763 609.704 364.501 609.917 364.288C610.13 364.075 610.392 363.968 610.701 363.968ZM622.331 354.784C622.992 354.784 623.547 354.869 623.995 355.04C624.454 355.211 624.918 355.488 625.387 355.872L624.555 356.848C623.883 356.304 623.174 356.032 622.427 356.032C621.51 356.032 620.768 356.384 620.203 357.088C619.648 357.792 619.371 358.923 619.371 360.48C619.371 361.995 619.648 363.115 620.203 363.84C620.758 364.555 621.494 364.912 622.411 364.912C622.88 364.912 623.291 364.832 623.643 364.672C623.995 364.512 624.368 364.288 624.763 364L625.515 364.96C625.174 365.312 624.736 365.605 624.203 365.84C623.67 366.075 623.056 366.192 622.363 366.192C621.467 366.192 620.667 365.973 619.963 365.536C619.27 365.088 618.726 364.437 618.331 363.584C617.947 362.72 617.755 361.685 617.755 360.48C617.755 359.275 617.958 358.245 618.363 357.392C618.768 356.528 619.318 355.877 620.011 355.44C620.704 355.003 621.478 354.784 622.331 354.784ZM633.3 366L632.468 363.232H628.292L627.46 366H625.924L629.46 354.976H631.38L634.9 366H633.3ZM628.66 362H632.1L630.388 356.24L628.66 362Z" fill="white"/>
<path d="M598.378 76.7871C599.039 76.7871 599.594 76.8724 600.042 77.0431C600.501 77.2138 600.965 77.4911 601.434 77.8751L600.602 78.8511C599.93 78.3071 599.221 78.0351 598.474 78.0351C597.557 78.0351 596.815 78.3871 596.25 79.0911C595.695 79.7951 595.418 80.9258 595.418 82.4831C595.418 83.9978 595.695 85.1178 596.25 85.8431C596.805 86.5578 597.541 86.9151 598.458 86.9151C598.927 86.9151 599.338 86.8351 599.69 86.6751C600.042 86.5151 600.415 86.2911 600.81 86.0031L601.562 86.9631C601.221 87.3151 600.783 87.6084 600.25 87.8431C599.717 88.0778 599.103 88.1951 598.41 88.1951C597.514 88.1951 596.714 87.9764 596.01 87.5391C595.317 87.0911 594.773 86.4404 594.378 85.5871C593.994 84.7231 593.802 83.6884 593.802 82.4831C593.802 81.2778 594.005 80.2484 594.41 79.3951C594.815 78.5311 595.365 77.8804 596.058 77.4431C596.751 77.0058 597.525 76.7871 598.378 76.7871ZM609.401 88.0031H608.137L608.025 86.6911C607.705 87.2138 607.337 87.5978 606.921 87.8431C606.505 88.0778 605.999 88.1951 605.401 88.1951C604.665 88.1951 604.089 87.9711 603.673 87.5231C603.257 87.0751 603.049 86.4404 603.049 85.6191V79.5711H604.521V85.4591C604.521 86.0351 604.623 86.4458 604.825 86.6911C605.028 86.9258 605.359 87.0431 605.817 87.0431C606.639 87.0431 607.343 86.5578 607.929 85.5871V79.5711H609.401V88.0031ZM616.106 79.3791C616.405 79.3791 616.682 79.4111 616.938 79.4751L616.666 80.9151C616.41 80.8511 616.165 80.8191 615.93 80.8191C615.407 80.8191 614.986 81.0111 614.666 81.3951C614.346 81.7791 614.095 82.3764 613.914 83.1871V88.0031H612.442V79.5711H613.706L613.85 81.2831C614.074 80.6538 614.378 80.1791 614.762 79.8591C615.146 79.5391 615.594 79.3791 616.106 79.3791ZM622.278 79.3791C622.576 79.3791 622.854 79.4111 623.11 79.4751L622.838 80.9151C622.582 80.8511 622.336 80.8191 622.102 80.8191C621.579 80.8191 621.158 81.0111 620.838 81.3951C620.518 81.7791 620.267 82.3764 620.086 83.1871V88.0031H618.614V79.5711H619.878L620.022 81.2831C620.246 80.6538 620.55 80.1791 620.934 79.8591C621.318 79.5391 621.766 79.3791 622.278 79.3791ZM630.669 83.5391C630.669 83.7844 630.659 84.0351 630.637 84.2911H625.261C625.325 85.2191 625.56 85.9018 625.965 86.3391C626.371 86.7764 626.893 86.9951 627.533 86.9951C627.939 86.9951 628.312 86.9364 628.653 86.8191C628.995 86.7018 629.352 86.5151 629.725 86.2591L630.365 87.1391C629.469 87.8431 628.488 88.1951 627.421 88.1951C626.248 88.1951 625.331 87.8111 624.669 87.0431C624.019 86.2751 623.693 85.2191 623.693 83.8751C623.693 83.0004 623.832 82.2271 624.109 81.5551C624.397 80.8724 624.803 80.3391 625.325 79.9551C625.859 79.5711 626.483 79.3791 627.197 79.3791C628.317 79.3791 629.176 79.7471 629.773 80.4831C630.371 81.2191 630.669 82.2378 630.669 83.5391ZM629.213 83.1071C629.213 82.2751 629.048 81.6404 628.717 81.2031C628.387 80.7658 627.891 80.5471 627.229 80.5471C626.024 80.5471 625.368 81.4324 625.261 83.2031H629.213V83.1071ZM636.988 79.3791C637.756 79.3791 638.353 79.6084 638.78 80.0671C639.217 80.5258 639.436 81.1551 639.436 81.9551V88.0031H637.964V82.1631C637.964 81.5658 637.852 81.1444 637.628 80.8991C637.404 80.6538 637.073 80.5311 636.636 80.5311C636.188 80.5311 635.793 80.6591 635.452 80.9151C635.111 81.1711 634.791 81.5391 634.492 82.0191V88.0031H633.02V79.5711H634.284L634.412 80.8191C634.711 80.3711 635.079 80.0191 635.516 79.7631C635.964 79.5071 636.455 79.3791 636.988 79.3791ZM646.651 87.6191C646.096 88.0031 645.467 88.1951 644.763 88.1951C644.048 88.1951 643.488 87.9924 643.083 87.5871C642.688 87.1711 642.491 86.5738 642.491 85.7951V80.7071H641.019V79.5711H642.491V77.6671L643.963 77.4911V79.5711H645.963L645.803 80.7071H643.963V85.7311C643.963 86.1684 644.038 86.4884 644.187 86.6911C644.347 86.8831 644.608 86.9791 644.971 86.9791C645.302 86.9791 645.675 86.8671 646.091 86.6431L646.651 87.6191ZM654.011 76.9791V86.6751H658.539L658.363 88.0031H652.491V76.9791H654.011ZM663.141 79.3791C664.325 79.3791 665.242 79.7738 665.893 80.5631C666.554 81.3524 666.885 82.4244 666.885 83.7791C666.885 84.6538 666.736 85.4271 666.437 86.0991C666.138 86.7604 665.706 87.2778 665.141 87.6511C664.576 88.0138 663.904 88.1951 663.125 88.1951C661.941 88.1951 661.018 87.8004 660.357 87.0111C659.696 86.2218 659.365 85.1498 659.365 83.7951C659.365 82.9204 659.514 82.1524 659.813 81.4911C660.112 80.8191 660.544 80.3018 661.109 79.9391C661.674 79.5658 662.352 79.3791 663.141 79.3791ZM663.141 80.5631C661.68 80.5631 660.949 81.6404 660.949 83.7951C660.949 85.9391 661.674 87.0111 663.125 87.0111C664.576 87.0111 665.301 85.9338 665.301 83.7791C665.301 81.6351 664.581 80.5631 663.141 80.5631ZM672.389 79.3791C672.89 79.3791 673.349 79.4538 673.765 79.6031C674.181 79.7418 674.581 79.9711 674.965 80.2911L674.261 81.2191C673.962 81.0058 673.669 80.8511 673.381 80.7551C673.104 80.6484 672.794 80.5951 672.453 80.5951C671.77 80.5951 671.237 80.8671 670.853 81.4111C670.48 81.9551 670.293 82.7604 670.293 83.8271C670.293 84.8938 670.48 85.6831 670.853 86.1951C671.226 86.6964 671.76 86.9471 672.453 86.9471C672.784 86.9471 673.088 86.8991 673.365 86.8031C673.642 86.6964 673.952 86.5311 674.293 86.3071L674.965 87.2671C674.197 87.8858 673.338 88.1951 672.389 88.1951C671.248 88.1951 670.346 87.8111 669.685 87.0431C669.034 86.2751 668.709 85.2138 668.709 83.8591C668.709 82.9631 668.858 82.1791 669.157 81.5071C669.456 80.8351 669.877 80.3124 670.421 79.9391C670.976 79.5658 671.632 79.3791 672.389 79.3791ZM682.481 86.0351C682.481 86.3764 682.54 86.6324 682.657 86.8031C682.775 86.9631 682.951 87.0858 683.185 87.1711L682.849 88.1951C682.412 88.1418 682.06 88.0191 681.793 87.8271C681.527 87.6351 681.329 87.3364 681.201 86.9311C680.636 87.7738 679.799 88.1951 678.689 88.1951C677.857 88.1951 677.201 87.9604 676.721 87.4911C676.241 87.0218 676.001 86.4084 676.001 85.6511C676.001 84.7551 676.321 84.0671 676.961 83.5871C677.612 83.1071 678.529 82.8671 679.713 82.8671H681.009V82.2431C681.009 81.6458 680.865 81.2191 680.577 80.9631C680.289 80.7071 679.847 80.5791 679.249 80.5791C678.631 80.5791 677.873 80.7284 676.977 81.0271L676.609 79.9551C677.655 79.5711 678.625 79.3791 679.521 79.3791C680.513 79.3791 681.255 79.6244 681.745 80.1151C682.236 80.5951 682.481 81.2831 682.481 82.1791V86.0351ZM679.025 87.0911C679.868 87.0911 680.529 86.6538 681.009 85.7791V83.8431H679.905C678.348 83.8431 677.569 84.4191 677.569 85.5711C677.569 86.0724 677.692 86.4511 677.937 86.7071C678.183 86.9631 678.545 87.0911 679.025 87.0911ZM689.76 87.6191C689.206 88.0031 688.576 88.1951 687.872 88.1951C687.158 88.1951 686.598 87.9924 686.192 87.5871C685.798 87.1711 685.6 86.5738 685.6 85.7951V80.7071H684.128V79.5711H685.6V77.6671L687.072 77.4911V79.5711H689.072L688.912 80.7071H687.072V85.7311C687.072 86.1684 687.147 86.4884 687.296 86.6911C687.456 86.8831 687.718 86.9791 688.08 86.9791C688.411 86.9791 688.784 86.8671 689.2 86.6431L689.76 87.6191ZM692.758 79.5711V88.0031H691.286V79.5711H692.758ZM692.006 75.5231C692.315 75.5231 692.566 75.6191 692.758 75.8111C692.95 76.0031 693.046 76.2431 693.046 76.5311C693.046 76.8191 692.95 77.0591 692.758 77.2511C692.566 77.4324 692.315 77.5231 692.006 77.5231C691.707 77.5231 691.462 77.4324 691.27 77.2511C691.078 77.0591 690.982 76.8191 690.982 76.5311C690.982 76.2431 691.078 76.0031 691.27 75.8111C691.462 75.6191 691.707 75.5231 692.006 75.5231ZM698.969 79.3791C700.153 79.3791 701.071 79.7738 701.721 80.5631C702.383 81.3524 702.713 82.4244 702.713 83.7791C702.713 84.6538 702.564 85.4271 702.265 86.0991C701.967 86.7604 701.535 87.2778 700.969 87.6511C700.404 88.0138 699.732 88.1951 698.953 88.1951C697.769 88.1951 696.847 87.8004 696.185 87.0111C695.524 86.2218 695.193 85.1498 695.193 83.7951C695.193 82.9204 695.343 82.1524 695.641 81.4911C695.94 80.8191 696.372 80.3018 696.937 79.9391C697.503 79.5658 698.18 79.3791 698.969 79.3791ZM698.969 80.5631C697.508 80.5631 696.777 81.6404 696.777 83.7951C696.777 85.9391 697.503 87.0111 698.953 87.0111C700.404 87.0111 701.129 85.9338 701.129 83.7791C701.129 81.6351 700.409 80.5631 698.969 80.5631ZM709.113 79.3791C709.881 79.3791 710.478 79.6084 710.905 80.0671C711.342 80.5258 711.561 81.1551 711.561 81.9551V88.0031H710.089V82.1631C710.089 81.5658 709.977 81.1444 709.753 80.8991C709.529 80.6538 709.198 80.5311 708.761 80.5311C708.313 80.5311 707.918 80.6591 707.577 80.9151C707.236 81.1711 706.916 81.5391 706.617 82.0191V88.0031H705.145V79.5711H706.409L706.537 80.8191C706.836 80.3711 707.204 80.0191 707.641 79.7631C708.089 79.5071 708.58 79.3791 709.113 79.3791Z" fill="white"/>
</svg>
